<?xml version="1.0" standalone="no"?>
<!DOCTYPE svg PUBLIC "-//W3C//DTD SVG 1.1//EN" "http://www.w3.org/Graphics/SVG/1.1/DTD/svg11.dtd" >
<svg xmlns="http://www.w3.org/2000/svg" xmlns:xlink="http://www.w3.org/1999/xlink" version="1.1">
<metadata>
Created by FontForge 20170731 at Mon May 25 11:30:22 2020
 By Aleksey,,,
</metadata>
<defs>
<font id="icomoon" horiz-adv-x="1024" >
  <font-face 
    font-family="icomoon"
    font-weight="400"
    font-stretch="normal"
    units-per-em="1024"
    panose-1="0 0 0 0 0 0 0 0 0 0"
    ascent="960"
    descent="-64"
    bbox="-1.55752 -64.2222 10240 960"
    underline-thickness="0"
    underline-position="0"
    unicode-range="U+0001-FFFD"
  />
<missing-glyph 
 />
    <glyph glyph-name=".notdef" unicode="&#xfffd;" 
 />
    <glyph glyph-name="glyph1" horiz-adv-x="0" 
d="M0 0v0v0v0z" />
    <glyph glyph-name="glyph1" horiz-adv-x="0" 
d="M0 0v0v0v0z" />
    <glyph glyph-name="nonmarkingreturn" horiz-adv-x="341" 
 />
    <glyph glyph-name="uni0001" horiz-adv-x="0" 
d="M0 0v0v0v0z" />
    <glyph glyph-name="space" unicode=" " horiz-adv-x="512" 
d="M0 0v0v0v0z" />
    <glyph glyph-name="uniE900" unicode="&#xe900;" horiz-adv-x="563" 
d="M428 -20l-401 468l401 468l117 -100l-316 -368l316 -368z" />
    <glyph glyph-name="uniE901" unicode="&#xe901;" horiz-adv-x="983" 
d="M189 209v5h-66q-49 0 -83.5 35t-34.5 84v498q0 50 34.5 85t83.5 35h737q49 0 83.5 -35t34.5 -85v-498q0 -49 -34.5 -84t-83.5 -35h-291l-2 -1l-378 -230v226v0zM123 836h-5v-508h184v-143l8 5l227 138h328v508h-742v0zM184 -26v235h-61q-51 0 -87 36.5t-36 87.5v498
q0 52 36 88.5t87 36.5h737q51 0 87 -36.5t36 -88.5v-498q0 -51 -36 -87.5t-87 -36.5h-290l-386 -235v0zM123 946q-47 0 -80 -34t-33 -81v-498q0 -47 33 -80.5t80 -33.5h72v-227l372 227h293q47 0 80 33.5t33 80.5v498q0 48 -33 81.5t-80 33.5h-737v0zM297 176v147h-184v519
h757v-519h-331l-242 -147v0zM123 333h184v-139l229 139h324v498h-737v-498v0z" />
    <glyph glyph-name="uniE902" unicode="&#xe902;" 
d="M697 180l-108 92q-13 11 -29 18t-33 9q-25 1 -47.5 -9t-38.5 -30q-4 -4 -10 -4.5t-10 3.5q-33 29 -63 61t-57 68q-3 4 -3 10.5t4 10.5q20 18 29.5 45.5t5.5 56.5q-2 16 -8.5 30.5t-15.5 27.5l-85 117q-16 21 -38 32.5t-46 11.5q-6 0 -11 -1t-10 -1q-23 -6 -42.5 -17
t-35.5 -28q-22 -24 -40.5 -84t19.5 -169q12 -34 29 -70q18 -36 40 -71.5t49 -70.5q27 -34 58 -67q46 -50 95 -89q49 -40 97.5 -68t95.5 -43q46 -15 87 -15q36 0 67 12t52 37q15 16 25.5 35.5t14.5 43.5q8 31 -2.5 63t-34.5 53v0zM678 77q-3 -15 -9 -27.5t-16 -22.5
q-14 -16 -34 -23.5t-44 -7.5q-34 0 -74 14q-41 13 -84 38.5t-88 61.5q-45 37 -88 83q-59 63 -101 130q-42 66 -63 126.5t-19 110.5q1 49 28 78q10 11 22 17.5t27 9.5q2 1 4.5 1h5.5q11 0 21 -5.5t18 -15.5l86 -119q14 -19 10 -42.5t-23 -36.5l-21 -14q-10 -6 -12.5 -19.5
t4.5 -24.5q40 -61 90 -114.5t106 -96.5q11 -8 23 -5t18 14l13 22q8 12 19.5 19t24.5 7q8 0 16 -3t15 -9l110 -93q10 -9 14.5 -23.5t0.5 -29.5v0zM936 960h-432q-37 0 -63 -28t-26 -68v-246q0 -40 26 -68t63 -28h1v-65q0 -19 10 -35t27 -23q6 -3 11.5 -4t11.5 -1q11 0 22 5
t19 14l101 109h227q38 0 64 28t26 68v246q2 40 -24 68t-64 28v0zM969 618q0 -15 -10 -25t-23 -10h-239q-6 0 -11.5 -2.5t-9.5 -6.5l-110 -118l-0.5 -0.5t-0.5 0.5q-1 0 -1 0.5v0.5v95q0 13 -8.5 22t-20.5 9h-31q-13 0 -22.5 10.5t-9.5 24.5v246q0 14 9.5 24t22.5 10h431
q14 0 23.5 -10.5t9.5 -23.5v-246h1v0zM581 692q19 0 32 14t13 34q0 21 -13 35t-32 14t-32 -14t-13 -35q0 -20 13 -34t32 -14zM720 692q19 0 32.5 14t13.5 34q0 21 -13.5 35t-32.5 14q-18 0 -31.5 -14t-13.5 -35q0 -20 13.5 -34t31.5 -14zM860 692q19 0 32 14t13 34
q0 21 -13 35t-32 14t-32.5 -14t-13.5 -35q0 -20 13.5 -34t32.5 -14z" />
    <glyph glyph-name="uniE903" unicode="&#xe903;" 
d="M154 141v-193l321 193h242q42 0 72 30t30 72v410q0 42 -30 72t-72 30h-615q-42 0 -72 -30t-30 -72v-410q0 -42 30 -72t72 -30h52v0zM102 653h615v-410h-270l-191 -114v114h-154v410v0zM922 960h-615q-42 0 -72 -30t-30 -72h614q43 0 73 -30t30 -73v-409q42 0 72 30t30 72
v410q0 42 -30 72t-72 30z" />
    <glyph glyph-name="uniE904" unicode="&#xe904;" horiz-adv-x="1152" 
d="M740 544l-273 274l135 135l506 -505l-506 -505l-135 135l273 274h-740v192h740v0z" />
    <glyph glyph-name="uniE905" unicode="&#xe905;" horiz-adv-x="1385" 
d="M90 117h1085q37 0 63.5 -26.5t26.5 -64.5q0 -37 -26.5 -63.5t-63.5 -26.5h-1085q-37 0 -63.5 26.5t-26.5 63.5q0 38 26.5 64.5t63.5 26.5v0zM90 538h844q37 0 63.5 -26.5t26.5 -63.5t-26.5 -63.5t-63.5 -26.5h-844q-37 0 -63.5 26.5t-26.5 63.5t26.5 63.5t63.5 26.5v0z
M90 960h1205q37 0 63.5 -26.5t26.5 -63.5q0 -38 -26.5 -64.5t-63.5 -26.5h-1205q-37 0 -63.5 26.5t-26.5 64.5q0 37 26.5 63.5t63.5 26.5v0z" />
    <glyph glyph-name="uniE906" unicode="&#xe906;" horiz-adv-x="781" 
d="M751 960h-721q-12 0 -21 -9t-9 -21v-691q0 -13 9 -21.5t21 -8.5q13 0 21.5 8.5t8.5 21.5v661h661v-902h-661v90q0 13 -8.5 21.5t-21.5 8.5q-12 0 -21 -8.5t-9 -21.5v-120q0 -12 9 -21t21 -9h721q13 0 21.5 9t8.5 21v962q0 12 -8.5 21t-21.5 9v0zM661 629v181
q0 12 -8.5 21t-21.5 9h-481q-12 0 -21 -9t-9 -21v-181q0 -12 9 -21t21 -9h481q13 0 21.5 9t8.5 21zM601 659h-421v121h421v-121zM361 434q0 12 -9 21t-21 9h-45v45q0 13 -9 21.5t-22 8.5q-12 0 -21 -8.5t-9 -21.5v-45h-45q-12 0 -21 -9t-9 -21t9 -21t21 -9h45v-45
q0 -13 9 -21.5t21 -8.5q13 0 22 8.5t9 21.5v45h45q12 0 21 9t9 21zM601 464h-150q-13 0 -21.5 -9t-8.5 -21t8.5 -21t21.5 -9h150q13 0 21.5 9t8.5 21t-8.5 21t-21.5 9v0zM330 260q-9 9 -21.5 9t-21.5 -9l-32 -32l-31 32q-9 9 -21.5 9t-21.5 -9t-9 -21.5t9 -21.5l32 -31
l-32 -32q-9 -9 -9 -21.5t9 -21.5q4 -4 10 -6.5t11 -2.5q6 0 11.5 2.5t10.5 6.5l31 32l32 -32q5 -4 10.5 -6.5t11.5 -2.5q5 0 10.5 2.5t10.5 6.5q9 9 9 21.5t-9 21.5l-32 32l32 31q9 9 9 21.5t-9 21.5zM631 186q0 12 -8.5 21t-21.5 9h-75q12 0 21 8.5t9 21.5q0 12 -9 21
t-21 9t-21 -9t-9 -21q0 -13 9 -21.5t21 -8.5h-75q-13 0 -21.5 -9t-8.5 -21q0 -13 8.5 -22t21.5 -9h150q13 0 21.5 9t8.5 22zM526 95q12 0 21 9t9 21q0 13 -9 21.5t-21 8.5t-21 -8.5t-9 -21.5q0 -12 9 -21t21 -9z" />
    <glyph glyph-name="uniE907" unicode="&#xe907;" horiz-adv-x="973" 
d="M54 861q23 22 54.5 22t54.5 -22l724 -724q22 -23 22 -54.5t-22 -54.5q-22 -22 -54 -22t-55 22l-724 724q-22 23 -22 54.5t22 54.5v0zM54 144l724 724q23 22 55 22t54 -22q22 -23 22 -54.5t-22 -54.5l-724 -724q-23 -22 -54.5 -22t-54.5 22q-22 23 -22 54.5t22 54.5v0z
" />
    <glyph glyph-name="uniE908" unicode="&#xe908;" horiz-adv-x="646" 
d="M114 -2l-107 107l370 371l-370 370l107 107l477 -477z" />
    <glyph glyph-name="uniE909" unicode="&#xe909;" horiz-adv-x="771" 
d="M385 162q-11 0 -19 -8t-8 -20v-165q0 -11 8 -19t19 -8q12 0 20 8t8 19v165q0 12 -8 20t-20 8zM495 162q-11 0 -19 -8t-8 -20v-110q0 -11 8 -19t19 -8q12 0 20 8t8 19v110q0 12 -8 20t-20 8zM275 162q-11 0 -19 -8t-8 -20v-110q0 -11 8 -19t19 -8q12 0 20 8t8 19v110
q0 12 -8 20t-20 8zM275 409q0 -45 32.5 -77.5t77.5 -32.5q46 0 78 32.5t32 77.5q0 46 -32 78.5t-78 32.5q-45 0 -77.5 -32.5t-32.5 -78.5zM440 409q0 -22 -16 -38.5t-39 -16.5q-22 0 -38.5 16.5t-16.5 38.5q0 23 16.5 39.5t38.5 16.5q23 0 39 -16.5t16 -39.5zM663 550
q-33 56 -62 95t-40 52q-28 132 -71.5 197.5t-104.5 65.5q-60 0 -104 -65.5t-72 -197.5q-11 -13 -40 -52t-61 -95q-27 -46 -47 -90q-21 -44 -34 -85.5t-20 -81.5q-7 -39 -7 -76q0 -12 8 -20t20 -8q45 0 79.5 14t57.5 30v-11.5v-4.5q0 -12 8 -20t20 -8h385q11 0 19.5 8t8.5 20
v5.5t-1 14.5q24 -18 58.5 -33t79.5 -15q12 0 20 8t8 20q0 37 -7 76q-7 40 -20.5 81.5t-33.5 85.5t-47 90v0zM220 244q1 22 2 57t4 79q1 12 -6.5 20.5t-19.5 8.5q-11 1 -19.5 -6.5t-9.5 -18.5q-1 -21 -2 -39.5t-2 -35.5q-9 -11 -37 -33t-74 -29q4 46 18 91q13 46 32 88.5
t41 80.5q22 39 42 69q-2 -19 -4.5 -39.5t-4.5 -41.5q-1 -12 6 -20.5t18 -9.5q12 -1 20.5 6t10.5 18q9 98 24 175t34.5 130.5t42.5 82.5q24 28 49 28q42 0 72 -63q31 -64 51 -161t31 -214q10 -116 11 -223h-330v0zM604 315q0 1 -0.5 1t-0.5 1q-2 51 -7 119.5t-14 139.5
q20 -30 42 -68t40.5 -81t32.5 -88q14 -46 17 -92q-52 9 -80 37.5t-30 30.5v0z" />
    <glyph glyph-name="uniE90A" unicode="&#xe90a;" 
d="M1024 452q-1 3 -20 71.5t-74 151.5q-23 35 -55 71q-33 36 -77 67.5t-100 53.5q-56 23 -126 30q-3 25 -17.5 44t-40.5 19t-40.5 -19t-18.5 -44q-70 -7 -127 -29q-57 -23 -101 -54t-77 -68q-33 -36 -56 -71q-55 -83 -74 -151.5t-20 -71.5q-1 -7 1 -13.5t6 -11.5t10 -8
t13 -3h392v-30q0 -12 8.5 -21t21.5 -9q12 0 21 9t9 21v30h60v-330q0 -11 -13 -50.5t-77 -39.5t-77 39.5t-14 50.5v30h61v-30q0 -12 8.5 -21t21.5 -9q12 0 21 9t9 21v180q0 13 -9 21.5t-21 8.5q-13 0 -21.5 -8.5t-8.5 -21.5v-90h-91q-12 0 -21 -8.5t-9 -21.5v-60
q0 -2 5.5 -39.5t38.5 -70.5q20 -20 47 -30t60 -10t59.5 10t46.5 30q33 33 38.5 70.5t5.5 39.5v330h392q7 0 13 3t10 8t6 11.5t1 13.5v0zM362 476q3 99 22 165q19 65 43 106.5t48 61.5q24 21 37 28q13 -7 37 -28q24 -20 48 -61t43 -107t22 -165h-300zM144 642q25 38 55 69
q29 31 62.5 54.5t71.5 39.5q38 17 79 25q-19 -22 -38 -54q-19 -31 -34.5 -74.5t-25.5 -98.5q-11 -56 -13 -127h-233q9 29 27 73.5t49 92.5zM722 476q-2 71 -12 127q-10 55 -25.5 98.5t-34.5 74.5q-19 32 -39 54q42 -8 79 -24q38 -16 71.5 -39.5t62.5 -54.5q30 -31 55 -69
q32 -47 50 -92.5t26 -74.5h-233z" />
    <glyph glyph-name="uniE90B" unicode="&#xe90b;" horiz-adv-x="1755" 
d="M878 9q-29 0 -56 11t-48 32l-585 585q-43 43 -43 103.5t43 103.5t103.5 43t103.5 -43l482 -484l482 465q41 45 101.5 48.5t105.5 -37.5q45 -40 48.5 -100.5t-37.5 -105.5q-4 -4 -7.5 -8t-8.5 -7l-585 -565q-20 -19 -45.5 -29.5t-53.5 -11.5v0v0z" />
    <glyph glyph-name="uniE90C" unicode="&#xe90c;" 
d="M769 448q0 -11 -4.5 -20t-12.5 -16q-7 -7 -16 -10.5t-20 -3.5h-511l-204 -207v718q0 11 3.5 20t10.5 16t16 10.5t20 3.5h665q11 0 20 -3.5t16 -10.5q8 -7 12.5 -16t4.5 -20v-461v0zM973 755q11 0 20 -3.5t16 -10.5t10.5 -16t3.5 -20v-768l-204 204h-564q-11 0 -20 3.5
t-16 10.5t-10.5 16t-3.5 20v103h665v461h103v0z" />
    <glyph glyph-name="uniE90D" unicode="&#xe90d;" 
d="M735 345h173q7 33 10.5 59t3.5 44t-3.5 44t-10.5 59h-173q4 -25 5.5 -51t1.5 -52t-1.5 -52t-5.5 -51zM644 62q30 9 61 27t64 45q32 27 56.5 54.5t41.5 55.5h-151q-12 -48 -30 -93.5t-42 -88.5v0zM632 345q4 25 5.5 51t1.5 52t-1.5 52t-5.5 51h-240q-4 -25 -5.5 -51
t-1.5 -52t1.5 -52t5.5 -51h240zM512 40q34 49 58.5 100t39.5 104h-196q15 -53 39.5 -104t58.5 -100v0zM308 652q14 52 32 97.5t40 84.5q-30 -9 -62 -27.5t-65 -46.5q-33 -26 -57 -53t-39 -55h151v0zM157 244q15 -28 39 -55.5t57 -54.5t65 -45t62 -27q-24 43 -42 88.5
t-30 93.5h-151v0zM116 345h173q-4 25 -5.5 51t-1.5 52t1.5 52t5.5 51h-173q-7 -33 -10.5 -59t-3.5 -44t3.5 -44t10.5 -59zM512 856q-34 -49 -58.5 -100t-39.5 -104h196q-15 53 -39.5 104t-58.5 100v0zM867 652q-17 28 -41.5 55t-56.5 53q-33 28 -64 46.5t-61 27.5
q22 -39 40 -84.5t32 -97.5h151v0zM150 808q37 38 79 66q41 28 86.5 47t94.5 29q49 9 102 9t102 -9q49 -10 94 -29t86 -47t78 -66q38 -37 66 -78t47 -86t29 -94q9 -49 9 -102t-9 -102q-10 -49 -29 -94.5t-47 -86.5q-28 -42 -66 -79q-37 -38 -78 -65q-41 -28 -86 -47t-94 -28
t-102 -9t-102 9t-94 28t-87 47q-42 27 -79 65q-38 37 -65 79q-28 41 -47 86.5t-28 94.5t-9 102t9 102t28 94t47 86q27 41 65 78v0z" />
    <glyph glyph-name="uniE90E" unicode="&#xe90e;" 
d="M713 352q47 65 64 140q16 75 3 148t-53 138q-41 65 -107 111q-67 46 -143 62t-150.5 3.5t-140.5 -52.5q-67 -40 -114 -105t-63 -139q-16 -75 -3.5 -148t53.5 -138q40 -65 107 -111q47 -33 101 -51t109.5 -20t110.5 11q56 13 106 42l289 -282q24 -24 58 -25t58 22
q25 23 26 56.5t-23 57.5q0 1 -1 1.5t-2 1.5l-285 277v0zM393 326q-53 0 -99 20q-46 19 -80.5 52.5t-54.5 79.5q-20 45 -20 96q0 52 20 97t54.5 79t80.5 53q46 20 98 20q53 0 99 -20q46 -19 80.5 -52.5t54.5 -79.5q20 -45 20 -96q0 -52 -20 -97t-54 -79t-81 -53
q-46 -20 -98 -20v0v0v0z" />
    <glyph glyph-name="uniE90F" unicode="&#xe90f;" horiz-adv-x="717" 
d="M1 38h715v-101h-715v101v0zM255 652q0 -22 7.5 -40t21.5 -32q16 -14 34.5 -21.5t39.5 -7.5q22 0 40 7.5t32 21.5q16 14 24 32t8 40q0 20 -8 38t-24 34q-15 16 -33 23.5t-39 7.5q-20 0 -38 -7.5t-34 -23.5q-15 -16 -23 -34t-8 -38zM666 652q0 -52 -19.5 -113t-57.5 -132
q-39 -69 -77 -126t-77 -102l-77 -89q-16 18 -38 43t-48 56q-25 31 -59.5 84t-77.5 127q-42 74 -63 137t-21 115q0 64 22.5 118t66.5 98q46 46 100.5 68.5t117.5 22.5q64 0 118 -22.5t98 -68.5q46 -44 69 -98t23 -118v0z" />
    <glyph glyph-name="uniE910" unicode="&#xe910;" horiz-adv-x="838" 
d="M821 153l-106 151q-28 40 -77 37.5t-71 -44.5q-15 -29 -47.5 -39.5t-62.5 2.5q-33 14 -67 46q-34 31 -62 70.5t-46 82.5q-19 42 -21 80q-5 33 17.5 59.5t55.5 31.5q47 5 66 50t-9 85l-106 151q-23 29 -59 35t-65 -13l-102 -72q-39 -28 -49 -88q-9 -60 8 -139.5t59 -171.5
q43 -93 110 -188q66 -95 139 -167q73 -73 142 -116t128 -54q60 -12 101 17l102 71q29 23 35 59t-13 64v0z" />
    <glyph glyph-name="uniE911" unicode="&#xe911;" horiz-adv-x="853" 
d="M641 234v64q0 24 -18.5 43.5t-55.5 34.5q-36 15 -71 22.5t-69 7.5t-69.5 -7.5t-72.5 -22.5q-36 -15 -54 -34.5t-18 -43.5v-64h428v0zM495 644q-14 14 -31 21t-37 7t-37 -7t-31 -21t-21 -31t-7 -37t7 -37t21 -31t31 -21t37 -7t37 7t31 21t21 31t7 37t-7 37t-21 31v0z
M769 790q17 0 31.5 -6.5t26.5 -19.5q13 -13 19.5 -28t6.5 -32v-512q0 -17 -6.5 -32t-19.5 -28q-12 -13 -26.5 -19.5t-31.5 -6.5h-684q-17 0 -32 6.5t-28 19.5q-12 13 -18 28t-6 32v512q0 17 6 32t18 28q13 13 28 19.5t32 6.5h684zM85 -64v86h684v-86h-684v0zM769 960v-86
h-684v86h684z" />
    <glyph glyph-name="uniE912" unicode="&#xe912;" horiz-adv-x="1252" 
d="M1 -64v397l853 115l-853 115v397l1195 -512l-1195 -512v0z" />
    <glyph glyph-name="uniE913" unicode="&#xe913;" horiz-adv-x="1755" 
d="M878 887q28 0 53.5 -10.5t45.5 -29.5l585 -565q5 -4 8.5 -7.5l7.5 -7.5q40 -45 37 -105.5t-48 -101.5q-45 -40 -105.5 -37t-100.5 48v0l-483 465l-482 -484q-43 -43 -103.5 -43t-103.5 43t-43 104t43 104l585 585q21 20 48 31.5t56 10.5v0v0z" />
    <glyph glyph-name="uniE914" unicode="&#xe914;" horiz-adv-x="977" 
d="M873 937q22 0 40.5 -8t33.5 -23t22.5 -33.5t7.5 -40.5v-768q0 -22 -7.5 -40.5t-22.5 -33.5t-33.5 -23t-40.5 -8h-299v332h126l24 157h-150v103q0 41 21.5 61.5t65.5 20.5h68v134q-31 5 -61 7.5t-59 2.5q-32 0 -59 -6t-50 -18q-22 -12 -39.5 -30t-30.5 -42t-19.5 -52
t-6.5 -61v-120h-138v-157h138v-332h-299q-22 0 -40.5 8t-33.5 23q-16 15 -23.5 33.5t-7.5 40.5v768q0 22 7.5 40.5t23.5 33.5q15 15 33.5 23t40.5 8h768v0z" />
    <glyph glyph-name="uniE915" unicode="&#xe915;" horiz-adv-x="977" 
d="M908 937q14 0 26 -5.5t22 -16.5q11 -10 16 -22t5 -26v-838q0 -14 -5 -26t-16 -22q-10 -11 -22 -16.5t-26 -5.5h-838q-14 0 -26.5 5.5t-23.5 16.5q-10 10 -15 22t-5 26v838q0 14 5 26t15 22q11 11 23.5 16.5t26.5 5.5h838zM295 99h2v467h-146v-467h144v0zM164 653
q12 -12 26.5 -18t32.5 -6q17 0 31.5 6t26.5 18q14 13 20.5 28t6.5 31q0 17 -6.5 32t-20.5 27q-12 13 -26.5 19.5t-31.5 6.5q-18 0 -32.5 -6.5t-26.5 -19.5q-12 -12 -18 -27t-6 -32q0 -16 6 -31t18 -28v0zM838 99v255q0 26 -1.5 48.5t-5.5 41.5q-3 18 -9 35t-15 32
q-8 17 -22 29t-32 19q-18 9 -39.5 13.5t-48.5 4.5q-25 0 -46.5 -5.5t-40.5 -16.5q-17 -11 -29.5 -24t-20.5 -28h-2v63h-140v-467h146v231q0 27 4.5 49t13.5 38q9 17 25.5 25t41.5 8q14 0 24.5 -2.5t19.5 -8.5q9 -5 14.5 -13.5t7.5 -18.5q3 -11 5.5 -21t3.5 -19
q1 -7 1.5 -17.5t0.5 -23.5v-227h144v0z" />
    <glyph glyph-name="uniE916" unicode="&#xe916;" horiz-adv-x="1257" 
d="M840 640q-75 0 -139 -24.5t-116 -73.5q-53 -49 -79 -108.5t-26 -129.5q0 -22 3.5 -43.5t9.5 -43.5q-11 -1 -20.5 -1.5t-18.5 -0.5q-21 0 -58 4.5t-91 14.5l-148 -74l42 129q-43 30 -75 63t-53 69t-32 75t-11 81q0 75 31.5 139t93.5 116t137 78.5t164 26.5
q77 0 146.5 -21.5t130.5 -63.5q62 -43 99.5 -96.5t50.5 -117.5q-9 1 -19.5 1.5t-21.5 0.5v0zM613 756q-13 0 -24.5 -4t-21.5 -12q-10 -6 -14.5 -15.5t-4.5 -21.5t4.5 -21.5t14.5 -17.5q10 -7 21.5 -10t24.5 -3q12 0 21.5 3t15.5 10q8 8 11.5 17.5t3.5 21.5t-3.5 21.5
t-11.5 15.5q-6 8 -15.5 12t-21.5 4v0zM314 651q12 0 22 3t17 10q8 8 12 17.5t4 21.5t-4 21.5t-12 15.5q-7 8 -17 12t-22 4t-23 -4t-20 -12q-10 -6 -15 -15.5t-5 -21.5t5 -21.5t15 -17.5q9 -7 20 -10t23 -3zM1228 311q0 -67 -37 -128.5t-111 -118.5l33 -105l-118 64
q-44 -11 -75.5 -16.5t-51.5 -5.5q-76 0 -140.5 22t-116.5 67q-52 46 -78.5 100.5t-26.5 117.5q0 65 26.5 119.5t78.5 99.5t116.5 68t140.5 23q72 0 135 -23t116 -68q55 -46 82 -100t27 -116zM751 363q7 0 13.5 1.5t12.5 4.5q6 4 11 7.5t8 8.5q4 5 5.5 10.5t1.5 11.5
q0 3 -1 6t-3 7l-4 8t-5 7t-7.5 5.5t-10.5 3.5q-5 2 -10.5 3t-10.5 1q-8 0 -15 -3.5t-14 -9.5q-6 -7 -9.5 -14t-3.5 -14q0 -5 0.5 -9.5t1.5 -8.5q2 -3 4.5 -6.5t4.5 -6.5q3 -3 6.5 -6t6.5 -5q4 -1 8.5 -1.5t9.5 -0.5v0zM984 363q8 0 14.5 1.5t11.5 4.5q7 4 12 7.5t8 8.5
t4.5 10.5t1.5 11.5q0 7 -3.5 14t-11.5 14q-8 6 -17 9.5t-20 3.5q-8 0 -15 -3.5t-13 -9.5q-7 -7 -10 -14.5t-3 -16.5q0 -7 3 -14t10 -14q6 -7 13 -10t15 -3z" />
    <glyph glyph-name="uniE917" unicode="&#xe917;" horiz-adv-x="1536" 
d="M1467 800q4 -16 7 -36t6 -44q4 -24 6.5 -48t4.5 -48q1 -23 1.5 -44t0.5 -41q2 -20 2.5 -37t0.5 -30v-24q0 -60 -2 -112t-5.5 -96.5t-9.5 -80.5q-5 -37 -12 -66q-7 -22 -19 -42t-29 -38q-18 -17 -38.5 -29t-44.5 -19q-25 -6 -73 -11.5t-119 -9.5q-71 -3 -135.5 -5
t-123.5 -3h-117q-114 0 -206 2q-93 2 -164 5.5t-120 9.5q-50 5 -78 12q-52 15 -84.5 47t-46.5 81q-6 26 -11.5 60.5t-9.5 78.5q-3 45 -5 83t-3 69v64q0 59 2 111t5.5 96t9.5 80q5 36 12 65q7 24 19 44.5t29 38.5q18 17 38.5 29t44.5 19q25 6 73 11t119 7q71 4 135.5 7
t123.5 4h117q114 0 207 -2q92 -2 163 -5.5t121 -8.5q49 -6 77 -13q24 -7 44.5 -19t38.5 -29q17 -18 29 -38.5t19 -44.5v0zM619 229l381 219l-381 216v-435v0z" />
    <glyph glyph-name="uniE918" unicode="&#xe918;" horiz-adv-x="1615" 
d="M1055 935l-105 -105l288 -288h-1179v-148h1179l-288 -287l105 -105l466 466z" />
    <glyph glyph-name="uniE919" unicode="&#xe919;" 
d="M512 960q-106 0 -199 -40q-94 -40 -163.5 -109.5t-109.5 -163.5q-40 -93 -40 -199t40 -199q40 -94 109.5 -163.5t163.5 -109.5q93 -40 199 -40t199 40q94 40 163.5 109.5t109.5 163.5q40 93 40 199t-40 199q-40 94 -109.5 163.5t-163.5 109.5q-93 40 -199 40zM512 16
q-90 0 -168 34q-79 34 -137.5 92.5t-92.5 137.5q-34 78 -34 168t34 168q34 79 92.5 137.5t137.5 92.5q78 34 168 34t168 -34q79 -34 137.5 -92.5t92.5 -137.5q34 -78 34 -168t-34 -168q-34 -79 -92.5 -137.5t-137.5 -92.5q-78 -34 -168 -34zM512 351q24 0 40.5 18t16.5 43
v277q0 25 -16.5 43t-40.5 18t-40.5 -18t-16.5 -43v-277q0 -25 16.5 -43t40.5 -18zM577 229q0 -27 -19 -46t-46 -19t-46 19t-19 46t19 46t46 19t46 -19t19 -46z" />
    <glyph glyph-name="uniE91A" unicode="&#xe91a;" horiz-adv-x="906" 
d="M738 286q-36 0 -67 -14.5t-53 -38.5l-298 168q4 11 6 23t2 24t-2 24t-6 23l298 168q22 -24 53 -38t67 -14q68 0 116 47.5t48 114.5t-48 115t-116 48t-116 -48t-48 -115q0 -10 1.5 -19.5t3.5 -18.5l-301 -170q-22 21 -51.5 33.5t-62.5 12.5q-68 0 -116 -48t-48 -115
t48 -114.5t116 -47.5q33 0 62.5 12t51.5 34l301 -171q-2 -9 -3.5 -18.5t-1.5 -19.5q0 -67 48 -115t116 -48t116 48t48 115t-48 115t-116 48v0z" />
    <glyph glyph-name="uniE91B" unicode="&#xe91b;" horiz-adv-x="614" 
d="M567 487l-483 403q-25 21 -54.5 7t-29.5 -46v-806q0 -32 29.5 -46t54.5 7l483 403q19 15 19 39t-19 39v0z" />
    <glyph glyph-name="uniE91C" unicode="&#xe91c;" horiz-adv-x="942" 
d="M438 214q4 -5 10 -8t13 -3q6 0 12.5 3t10.5 8l215 244q6 6 7.5 15t-2.5 17t-11.5 13t-16.5 5h-123v396q0 13 -9 22t-22 9h-123q-12 0 -21 -9t-9 -22v-396h-123q-9 0 -16.5 -5t-11.5 -13t-2.5 -17t7.5 -15l215 -244v0zM799 264v-182h-676v182h-123v-243q0 -26 18 -43.5
t43 -17.5h799q26 0 44 17.5t18 43.5v243h-123v0z" />
    <glyph glyph-name="uniE91D" unicode="&#xe91d;" 
d="M563 -64h-102v461h-461v102h461v461h102v-461h461v-102h-461v-461z" />
    <glyph glyph-name="uniE91E" unicode="&#xe91e;" horiz-adv-x="10240" 
d="M0 960h10240v-1024h-10240v1024z" />
    <glyph glyph-name="uniE91F" unicode="&#xe91f;" 
d="M922 488q-4 3 -8.5 5t-9.5 3t-9.5 0.5t-9.5 -1.5q-8 -2 -16 -3t-16 -1q-53 0 -90.5 37t-37.5 88q0 1 0.5 3.5t0.5 3.5q0 5 -1 10t-3 10q-2 4 -5 8t-7 7t-8.5 5.5t-9.5 3.5t-10 0.5t-10 -1.5q-7 -2 -15.5 -3.5t-16.5 -1.5q-53 0 -90.5 37.5t-37.5 90.5q0 7 1 14.5t3 16.5
q1 5 1 10t-1 10t-3.5 9.5t-5.5 8.5t-7.5 7t-8.5 5q-5 2 -10 2.5t-10 0.5q-80 -8 -151 -43.5t-124 -94.5q-54 -59 -82.5 -133t-28.5 -154q0 -88 34 -166q33 -78 91 -136t136 -91q78 -34 166 -34t166 34t136 91.5t91 135.5q34 78 34 166q0 2 -0.5 3.5t-0.5 3.5q0 5 -1 9.5
t-3 8.5q-2 5 -5.5 8.5l-6.5 6.5v0zM512 107q-71 0 -133 27q-62 26 -108.5 72.5t-72.5 108.5q-27 62 -27 133q-1 57 17.5 111t53.5 98q35 45 82.5 76.5t102.5 45.5q2 -41 19 -78.5t47 -65.5t68 -43.5t79 -15.5h4q8 -36 26.5 -67t46.5 -55q29 -23 63 -35.5t71 -13.5
q-8 -63 -38 -117q-29 -55 -74.5 -95t-103.5 -63t-123 -23v0zM533 405q27 0 45.5 19t18.5 45q0 27 -18.5 45.5t-45.5 18.5q-26 0 -45 -18.5t-19 -45.5q0 -26 19 -45t45 -19zM363 533q26 0 45 19t19 45q0 27 -19 45.5t-45 18.5q-27 0 -45.5 -18.5t-18.5 -45.5q0 -26 18.5 -45
t45.5 -19zM320 363q27 0 45.5 18.5t18.5 45.5q0 26 -18.5 45t-45.5 19t-45.5 -19t-18.5 -45q0 -27 18.5 -45.5t45.5 -18.5zM661 235q27 0 45.5 18.5t18.5 45.5q0 26 -18.5 45t-45.5 19q-26 0 -45 -19t-19 -45q0 -27 19 -45.5t45 -18.5zM448 192q27 0 45.5 18.5t18.5 45.5
t-18.5 45.5t-45.5 18.5t-45.5 -18.5t-18.5 -45.5t18.5 -45.5t45.5 -18.5z" />
    <glyph glyph-name="uniE920" unicode="&#xe920;" 
d="M998 269q-14 14 -28.5 19.5t-28.5 5.5q-48 0 -92 6t-87 20v0q-10 5 -23 5.5t-22 0.5q-15 -4 -25 -10t-20 -15l-102 -103q-51 27 -95 59q-45 33 -83 71t-71 83q-32 44 -59 95l103 102q9 10 15 19.5t10 18.5q5 10 2.5 23t-2.5 22l-38 -6l32 13q-14 43 -20 87t-6 92
q0 19 -5.5 33.5t-19.5 23.5q-15 15 -29 20.5t-29 5.5h-192q-14 0 -31 -5.5t-26 -20.5q-15 -9 -20.5 -26t-5.5 -31q0 -96 17 -186t51 -173.5t86 -159.5q52 -77 121 -147v0v0q70 -69 147 -121q76 -52 159.5 -86t173.5 -51t186 -17q19 0 33.5 5.5t23.5 20.5q15 14 20.5 28.5
t5.5 28.5v186q0 19 -5.5 34t-20.5 30v0zM749 288v0v0v0z" />
    <glyph glyph-name="uniE921" unicode="&#xe921;" 
d="M285 74h-129q-4 0 -7 0.5t-7 3.5q-3 4 -3.5 7t-0.5 7q13 63 47 118q34 54 82 94.5t107 64.5q60 24 125 26h10h7q34 0 64.5 -6.5t60.5 -16.5q23 -6 44.5 3.5t31.5 32.5q6 20 0.5 38.5t-18.5 28.5q40 36 60 87t20 104q0 57 -21 106q-21 50 -58 86.5t-86 58.5
q-50 21 -106 21q-57 0 -107 -21q-49 -22 -86 -58.5t-58 -86.5q-21 -49 -21 -106q0 -53 20 -104t60 -87q-33 -14 -64 -33.5t-61 -42.5q-33 -27 -60 -59q-28 -32 -49 -68t-36 -75q-15 -38 -24 -78q-6 -31 0.5 -59.5t26.5 -52.5q20 -23 46 -36t56 -13h129q24 0 41 17.5t17 40.5
q0 24 -15 41t-38 17v0zM512 822q63 0 107 -44t44 -107q0 -60 -41 -104t-101 -48h-18q-60 0 -101 43.5t-41 103.5q0 64 44 110t107 46v0zM966 292v0q-13 30 -41.5 48.5t-65.5 18.5h-115q-37 0 -65.5 -19t-41.5 -52q0 -4 -0.5 -5t-4.5 -4h-222q-10 0 -20 -4t-20 -14l-58 -62
q-17 -17 -17 -38t17 -38l62 -67q7 -6 17 -12t23 -6h120q24 0 39 15t15 39q0 23 -15 38t-39 15h-102l-13 14l8 13h245q20 0 33.5 11.5t20.5 28.5q3 10 4.5 18t8.5 18q0 3 3 3.5t6 0.5h116q3 0 6 -0.5t3 -3.5q6 -17 14 -39.5t8 -45.5q0 -27 -5.5 -49.5t-12.5 -39.5
q0 -3 -2.5 -3.5t-6.5 -0.5h-116q-3 0 -5.5 2l-2.5 2q-4 7 -6.5 16.5t-2.5 19.5q-4 10 -10 18.5t-13 12.5q-10 6 -20 7t-20 -3q-20 -6 -31.5 -24t-8.5 -38q4 -13 7.5 -26t10.5 -23q13 -33 41.5 -52t65.5 -19h116q33 0 63 18t43 48q10 24 20.5 57t6.5 73q-6 43 -18 76.5
t-22 56.5v0zM882 163q0 -20 -14.5 -34.5t-34.5 -14.5q-21 0 -35 14.5t-14 34.5t14 34.5t35 14.5q20 0 34.5 -14.5t14.5 -34.5z" />
    <glyph glyph-name="uniE922" unicode="&#xe922;" horiz-adv-x="926" 
d="M839 687h-156v10q0 45 -18 85q-17 40 -47 70t-71 47t-89 17q-45 0 -86 -17t-71.5 -47t-48.5 -70t-18 -85v-15h-146q-19 4 -31.5 -8.5t-12.5 -30.5v-619q0 -19 12.5 -31.5t31.5 -12.5h756q18 0 30.5 12.5t12.5 31.5v619q-3 18 -16.5 31t-31.5 13v0zM590 687h-254v10
q0 51 38 86.5t89 35.5t89 -35.5t38 -86.5v-10zM258 477h69q7 0 10.5 4t3.5 11v97h254v-97q0 -7 3.5 -11t11.5 -4h68q7 0 10.5 4t3.5 11v97h103v-516h-654v516h103v-97q-4 -4 1.5 -9.5t12.5 -5.5v0z" />
    <glyph glyph-name="uniE923" unicode="&#xe923;" horiz-adv-x="1144" 
d="M361 207h422v-120h-422v120zM934 -64q-43 0 -82 17q-38 17 -66.5 45.5t-45.5 67.5q-17 38 -17 81t17 81t45.5 67t66.5 46q39 17 82 17t81 -17t67 -46t46 -67q16 -38 16 -81t-16 -81q-17 -39 -46 -67.5t-67 -45.5t-81 -17v0zM934 237q-36 0 -63.5 -27t-27.5 -63
t27.5 -63.5t63.5 -27.5t63 27.5t27 63.5t-27 63t-63 27zM618 601l105 60l211 -365l-105 -60zM211 -64q-43 0 -81 17q-39 17 -67.5 45.5t-45.5 67.5q-17 38 -17 81t17 81t45.5 67t67.5 46q38 17 81 17t81 -17t67 -46t46 -67t17 -81t-17 -81q-17 -39 -46 -67.5t-67 -45.5
t-81 -17zM211 237q-36 0 -63.5 -27t-27.5 -63t27.5 -63.5t63.5 -27.5t63 27.5t27 63.5t-27 63t-63 27zM239 294l211 365l104 -60l-211 -365l-104 60v0zM572 538q-43 0 -81 17t-67 46t-46 67t-17 81t17 81q17 39 46 67.5t67 45.5t81 17t81 -17q39 -17 67.5 -45.5t45.5 -67.5
q17 -38 17 -81t-17 -81t-45.5 -67t-67.5 -46q-38 -17 -81 -17v0zM572 840q-36 0 -63 -27.5t-27 -63.5t27 -63t63 -27t63.5 27t27.5 63t-27.5 63.5t-63.5 27.5z" />
    <glyph glyph-name="uniE924" unicode="&#xe924;" horiz-adv-x="819" 
d="M203 313q0 12 -8.5 19t-23.5 7q-6 0 -10.5 -0.5t-6.5 -0.5v-54q2 -1 5.5 -1h8.5q16 0 25.5 8t9.5 22zM330 339q-7 0 -11.5 -0.5t-7.5 -1.5v-119h6.5h7.5q28 -1 45 15t17 48q0 28 -15.5 43t-41.5 15v0zM565 960h-404q-45 0 -76 -31.5t-31 -75.5v-396h-11
q-18 0 -30.5 -12.5t-12.5 -30.5v-262q0 -18 12.5 -30.5t30.5 -12.5h11v-48q0 -44 31 -75.5t76 -31.5h551q44 0 75.5 31.5t31.5 75.5v646l-254 253v0zM113 367q10 1 23.5 2t32.5 1t32.5 -3.5t22.5 -10.5t14.5 -18t5.5 -24q0 -14 -4.5 -25t-12.5 -18q-11 -10 -26 -14.5
t-33 -4.5h-7.5h-6.5v-65h-41v180v0zM712 19h-551q-17 0 -29.5 12.5t-12.5 29.5v48h514q18 0 30.5 12.5t12.5 30.5v262q0 18 -12.5 30.5t-30.5 12.5h-514v396q0 17 12.5 29t29.5 12l379 1v-141q0 -30 22 -52t53 -22l137 1l2 -620q0 -17 -12.5 -29.5t-29.5 -12.5v0zM270 188
v179q11 1 25.5 2t29.5 1q26 0 43.5 -4.5t31.5 -14.5q14 -11 22 -27.5t8 -41.5q0 -26 -8.5 -44t-21.5 -29q-14 -12 -35.5 -17.5t-48.5 -5.5q-16 0 -27.5 0.5t-18.5 1.5v0zM564 294v-34h-66v-73h-41v182h111v-34h-70v-41h66v0z" />
    <glyph glyph-name="uniE925" unicode="&#xe925;" horiz-adv-x="1170" 
d="M549 102q-5 -8 -12.5 -13.5t-16.5 -8.5q-9 -2 -18.5 -1t-17.5 6l-324 179q-25 14 -32.5 41.5t7.5 52.5l24 40q15 24 43 32t54 -6l202 -113l322 537q15 24 43.5 31.5t53.5 -6.5l40 -22q26 -14 33 -41.5t-8 -52.5l-393 -655v0z" />
    <glyph glyph-name="uniE926" unicode="&#xe926;" horiz-adv-x="1134" 
d="M1090 163l-406 702q-19 30 -49 48t-68 18q-39 0 -68.5 -16.5t-48.5 -49.5l-406 -702q-19 -30 -19 -66.5t19 -69.5q19 -30 49 -47.5t68 -17.5h812q35 0 66.5 17.5t50.5 47.5q16 33 16 69.5t-16 66.5zM567 854q14 0 26.5 -7.5t20.5 -18.5l406 -702q9 -14 9 -27.5t-9 -27.5
q-8 -13 -19.5 -19t-27.5 -6h-812q-14 0 -26.5 7t-21.5 18q-8 14 -8 27.5t8 27.5l406 699q9 13 21.5 21t26.5 8zM538 331h62q3 0 7 2.5t4 8.5v271q0 2 -3 6.5t-8 4.5h-62q-3 0 -7 -3t-4 -8v-275q0 -2 2.5 -4.5t8.5 -2.5v0zM618 225q0 -21 -15 -36t-36 -15t-36 15t-15 36
t15 36t36 15t36 -15t15 -36z" />
    <glyph glyph-name="uniE927" unicode="&#xe927;" 
d="M512 864q-86 0 -162 -33q-76 -32 -132.5 -88.5t-88.5 -132.5q-33 -76 -33 -162t33 -162q32 -76 88.5 -132.5t132.5 -88.5q76 -33 162 -33t162 33q76 32 132.5 88.5t88.5 132.5q33 76 33 162t-33 162q-32 76 -88.5 132.5t-132.5 88.5q-76 33 -162 33zM512 96
q-73 0 -137 28q-64 27 -112 75t-75 112q-28 64 -28 137t28 137q27 64 75 112t112 75q64 28 137 28t137 -28q64 -27 112 -75t75 -112q28 -64 28 -137t-28 -137q-27 -64 -75 -112t-112 -75q-64 -28 -137 -28zM672 480h-320q-13 0 -22.5 -9.5t-9.5 -22.5t9.5 -22.5t22.5 -9.5
h320q13 0 22.5 9.5t9.5 22.5t-9.5 22.5t-22.5 9.5z" />
    <glyph glyph-name="uniE928" unicode="&#xe928;" 
d="M800 480h-576q-13 0 -22.5 -9.5t-9.5 -22.5t9.5 -22.5t22.5 -9.5h576q13 0 22.5 9.5t9.5 22.5t-9.5 22.5t-22.5 9.5z" />
    <glyph glyph-name="uniE929" unicode="&#xe929;" 
d="M956 176l-186 336q14 29 22 61t8 67q0 60 -23 112q-22 52 -61.5 91.5t-91.5 61.5q-52 23 -112 23t-112 -23q-52 -22 -91.5 -61.5t-61.5 -91.5q-23 -52 -23 -112q0 -35 8 -67.5t22 -61.5l-186 -335q-4 -8 -4 -16.5t4 -15.5q5 -8 12 -12t16 -4v0v0l174 1l87 -145
q4 -8 11.5 -12t15.5 -4h0.5h1.5q9 0 16 5.5t11 13.5l99 217l99 -217q4 -9 11 -14t16 -5h1.5h0.5q8 0 15.5 4t11.5 11l87 146l174 -1v0v0q8 0 15.5 4t12.5 11q4 8 4 16.5t-4 16.5zM512 864q46 0 87 -18q41 -17 71.5 -47.5t47.5 -71.5q18 -41 18 -87q0 -29 -7 -56.5t-21 -51.5
q-1 -2 -2.5 -4t-2.5 -5q-29 -48 -79.5 -77.5t-111.5 -29.5q-46 0 -87 18q-41 17 -71.5 47.5t-47.5 71.5q-18 41 -18 87t18 87q17 41 47.5 71.5t71.5 47.5q41 18 87 18v0zM380 69l-55 93q-9 14 -24 22.5t-31 8.5l-119 -1l144 259q39 -45 94.5 -71.5t119.5 -27.5zM754 193v0v0
q-17 0 -31.5 -8.5t-23.5 -22.5l-55 -93l-97 213l36 79q43 11 80.5 34.5t66.5 56.5l143 -260l-119 1v0zM512 480q66 0 113 47t47 113t-47 113t-113 47t-113 -47t-47 -113t47 -113t113 -47zM512 736q40 0 68 -28t28 -68t-28 -68t-68 -28t-68 28t-28 68t28 68t68 28z" />
    <glyph glyph-name="uniE92A" unicode="&#xe92a;" 
d="M658 710v0v0q-24 0 -45.5 -8.5t-37.5 -25.5q-17 -17 -26 -38t-9 -45t9 -45t26 -38v0v0q17 -17 38.5 -25.5t44.5 -8.5q22 0 44 8.5t39 25.5v0v0q16 17 25 38t9 45t-9 45t-25 38q-17 17 -38.5 25.5t-44.5 8.5zM695 555v0v0q-15 -15 -37 -15t-38 15v0v0v0v0q-8 8 -12 17.5
t-4 20.5t4 20.5t12 17.5q7 7 17 11.5t21 4.5q10 0 20 -4t17 -12q8 -7 12 -17t4 -21t-4 -20.5t-12 -17.5v0zM955 859q-3 12 -11 20.5t-20 10.5q-44 11 -111.5 0t-145.5 -42q-39 -16 -77 -35q-37 -19 -71.5 -41t-65.5 -46q-30 -24 -55 -48q-16 -16 -30.5 -33t-28.5 -35
q-33 1 -62.5 -3.5t-54.5 -15.5q-43 -19 -72 -51q-29 -31 -46.5 -65t-26.5 -66t-12 -52q-2 -10 0.5 -19.5t8.5 -17.5q5 -9 13.5 -14t18.5 -7h7h6h0.5h0.5l128 14q0 -1 0.5 -2t0.5 -2q1 -12 6 -23t13 -19l63 -62q8 -9 19 -14t23 -6q1 -1 2 -1h2l-14 -128v0v0q-2 -21 11 -37
t34 -18h2h3h4h4q20 3 52 12t66 26.5t65 46.5q32 29 51 72q11 25 15.5 54.5t3.5 62.5q18 13 35 28t33 31q25 25 49 55q24 31 46 65t41 71t35 76q30 77 41 144.5t1 113.5v0zM696 379q-17 -17 -35.5 -33t-38.5 -30q-7 -5 -10.5 -12.5t-2.5 -16.5q2 -31 -1 -57t-12 -46
q-25 -58 -78 -83.5t-90 -33.5l16 143q1 7 -1 13.5t-7 11.5q-4 5 -10.5 8t-12.5 3q-9 0 -17 0.5t-17 1.5v0v0q-1 0 -1.5 0.5t-1.5 0.5l-63 63q0 1 -0.5 1.5t-0.5 1.5v0v0q-1 9 -1.5 17t-0.5 17q0 7 -3 13t-8 10q-4 4 -9.5 6t-11.5 2h-2h-1l-144 -16q9 37 34 90t83 78
q20 9 46.5 12t57.5 1q8 -1 16 2.5t13 10.5q14 20 29.5 38.5t32.5 35.5q45 45 110 86t138 70q60 24 114 35.5t90 6.5q4 -39 -8 -97q-13 -58 -39.5 -121t-65.5 -124q-38 -62 -86 -109v0zM324 187q-13 2 -23.5 -6.5t-12.5 -21.5q-1 -9 -5 -18t-11 -16q-10 -9 -42 -16.5
t-68 -10.5q3 36 10.5 68t16.5 42q7 7 16 11t18 5q13 2 21.5 12.5t6.5 23.5t-12.5 21t-23.5 7q-20 -3 -38.5 -12t-32.5 -23q-15 -15 -25 -43.5t-17 -71.5q-4 -29 -5 -50.5t-1 -22.5q0 -7 2.5 -13t6.5 -11q5 -4 11 -6.5t12 -2.5h0.5h0.5q1 0 22.5 1t50.5 5q43 6 71.5 16.5
t43.5 25.5q14 14 23 32.5t12 38.5q1 14 -7 24.5t-21 11.5v0z" />
    <glyph glyph-name="uniE92B" unicode="&#xe92b;" 
d="M919 87l-211 210q38 45 59 101.5t21 119.5q0 71 -27 134t-74 110t-110 75q-63 27 -135 27v0q-71 0 -134 -27q-64 -27 -111 -74t-74 -111q-27 -63 -27 -134q0 -72 27 -135t74 -110t111 -74q63 -27 134 -27q63 0 119.5 21t101.5 59l210 -211q5 -4 11 -6.5t12 -2.5t12 2.5
t11 6.5q9 10 9 23t-9 23v0zM442 236q-58 0 -110 22q-51 22 -89.5 60.5t-60.5 89.5t-22 110q0 58 22 110q22 51 60.5 89.5t89.5 60.5q52 22 110 22q59 0 110 -22t89.5 -60.5t60.5 -89.5q22 -52 22 -110q0 -59 -22 -110t-60.5 -89.5t-89.5 -60.5t-110 -22z" />
    <glyph glyph-name="uniE92C" unicode="&#xe92c;" 
d="M512 896q-93 0 -174 -35q-82 -35 -143 -96t-96 -143q-35 -81 -35 -174t35 -174q35 -82 96 -143t143 -96q81 -35 174 -35t174 35q82 35 143 96t96 143q35 81 35 174t-35 174q-35 82 -96 143t-143 96q-81 35 -174 35zM342 252q-4 -7 -11.5 -11t-15.5 -4q-4 0 -8 1t-8 3
q-11 7 -14 19.5t3 23.5v0v0l31 51q2 4 6 6t9 2h4q17 0 28 -8t14 -18l-38 -65v0zM601 352v0h-333q-13 0 -22 9t-9 22v0.5v0.5q0 13 9.5 21.5t22.5 8.5h96l114 195l-37 63q-6 10 -3.5 22.5t13.5 19.5t23.5 4.5t19.5 -13.5v-0.5t1 -0.5l19 -34h1l19 34q7 11 19.5 14t23.5 -3
q0 -1 0.5 -1h0.5q11 -7 13.5 -19.5t-4.5 -22.5l-37 -64l-114 -194v-1h115q11 0 23 -5t17 -15l1 -1q5 -8 7.5 -14.5t2.5 -15.5q0 -2 -0.5 -4.5t-1.5 -5.5v0zM758 352h-0.5h-0.5v0h-55v0l40 -68q7 -11 4 -23.5t-14 -19.5q-4 -2 -8 -3t-9 -1q-8 0 -15 4t-12 11l-95 162l-47 80
q-10 18 -10.5 38t9.5 38q7 12 11.5 16.5l4.5 4.5l105 -177h90q12 0 21.5 -8.5t10.5 -21.5q0 -13 -8.5 -22.5t-21.5 -9.5v0z" />
    <glyph glyph-name="uniE92D" unicode="&#xe92d;" 
d="M768 288q-27 0 -51 -10.5t-41 -28.5l-296 166q2 8 3 16.5t1 16.5q0 9 -1 17t-3 16l296 166q17 -18 41 -28.5t51 -10.5q53 0 90.5 37.5t37.5 90.5t-37.5 90.5t-90.5 37.5t-90.5 -37.5t-37.5 -90.5q0 -9 1 -17t3 -16l-296 -166q-17 18 -41 28.5t-51 10.5q-53 0 -90.5 -37.5
t-37.5 -90.5t37.5 -90.5t90.5 -37.5q27 0 51 10.5t41 28.5l296 -166q-2 -8 -3 -16.5t-1 -16.5q0 -53 37.5 -90.5t90.5 -37.5t90.5 37.5t37.5 90.5t-37.5 90.5t-90.5 37.5v0zM768 800q26 0 45 -19t19 -45t-19 -45t-45 -19t-45 19t-19 45t19 45t45 19zM256 384q-26 0 -45 19
t-19 45t19 45t45 19t45 -19t19 -45t-19 -45t-45 -19zM768 96q-26 0 -45 19t-19 45t19 45t45 19t45 -19t19 -45t-19 -45t-45 -19z" />
    <glyph glyph-name="uniE92E" unicode="&#xe92e;" 
d="M832 864h-640q-40 0 -68 -28t-28 -68v-640q0 -40 28 -68t68 -28h640v0v0q40 0 68 28t28 68v640q0 40 -28 68t-68 28zM864 128q0 -13 -9.5 -22.5t-22.5 -9.5h-640q-13 0 -22.5 9.5t-9.5 22.5v640q0 13 9.5 22.5t22.5 9.5h640q13 0 22.5 -9.5t9.5 -22.5v-640z" />
    <glyph glyph-name="uniE92F" unicode="&#xe92f;" 
d="M991 553q-4 10 -12 16.5t-19 6.5h-321l-97 298q-3 10 -11.5 16t-18.5 6t-18.5 -6t-11.5 -16l-97 -298h-321q-10 0 -18.5 -6.5t-12.5 -16.5q-3 -10 0.5 -20t12.5 -15l260 -179l-100 -297q-4 -10 -0.5 -20t11.5 -16t18.5 -6t19.5 6l257 186l257 -186q4 -3 9 -4.5t10 -1.5
t10 1.5t9 4.5q8 6 11.5 16t-0.5 20l-100 297l260 179q9 6 12.5 15.5t0.5 19.5v0zM662 378q-9 -6 -12.5 -16t0.5 -20l76 -225l-195 141q-4 3 -9 4.5t-10 1.5v496l74 -226q3 -10 11.5 -16t18.5 -6h241z" />
    <glyph glyph-name="uniE930" unicode="&#xe930;" 
d="M991 553q-4 10 -12 16.5t-19 6.5h-321l-97 298q-3 10 -11.5 16t-18.5 6t-18.5 -6t-11.5 -16l-97 -298h-321q-10 0 -18.5 -6.5t-12.5 -16.5q-3 -10 0.5 -20t12.5 -15l260 -179l-100 -297q-4 -10 -0.5 -20t11.5 -16t18.5 -6t19.5 6l257 186l257 -186q4 -3 9 -4.5t10 -1.5
t10 1.5t9 4.5q8 6 11.5 16t-0.5 20l-100 297l260 179q9 6 12.5 15.5t0.5 19.5v0zM662 378q-9 -6 -12.5 -16t0.5 -20l76 -225l-195 141q-4 3 -9 4.5t-10 1.5t-10 -1.5t-9 -4.5l-195 -141l76 225q4 10 0.5 20t-12.5 16l-195 134h241q10 0 18.5 6t11.5 16l74 226l74 -226
q3 -10 11.5 -16t18.5 -6h241z" />
    <glyph glyph-name="uniE931" unicode="&#xe931;" 
d="M512 864q-86 0 -162 -33q-76 -32 -132.5 -88.5t-88.5 -132.5q-33 -76 -33 -162t33 -162q32 -76 88.5 -132.5t132.5 -88.5q76 -33 162 -33t162 33q76 32 132.5 88.5t88.5 132.5q33 76 33 162t-33 162q-32 76 -88.5 132.5t-132.5 88.5q-76 33 -162 33zM512 96
q-73 0 -137 28q-64 27 -112 75t-75 112q-28 64 -28 137t28 137q27 64 75 112t112 75q64 28 137 28t137 -28q64 -27 112 -75t75 -112q28 -64 28 -137t-28 -137q-27 -64 -75 -112t-112 -75q-64 -28 -137 -28zM704 448h-160v256q0 13 -9.5 22.5t-22.5 9.5t-22.5 -9.5
t-9.5 -22.5v-288q0 -13 9.5 -22.5t22.5 -9.5h192q13 0 22.5 9.5t9.5 22.5t-9.5 22.5t-22.5 9.5z" />
    <glyph glyph-name="uniE932" unicode="&#xe932;" 
d="M512 864q-86 0 -162 -33q-76 -32 -132.5 -88.5t-88.5 -132.5q-33 -76 -33 -162t33 -162q32 -76 88.5 -132.5t132.5 -88.5q76 -33 162 -33t162 33q76 32 132.5 88.5t88.5 132.5q33 76 33 162t-33 162q-32 76 -88.5 132.5t-132.5 88.5q-76 33 -162 33zM512 96
q-73 0 -137 28q-64 27 -112 75t-75 112q-28 64 -28 137t28 137q27 64 75 112t112 75q64 28 137 28t137 -28q64 -27 112 -75t75 -112q28 -64 28 -137t-28 -137q-27 -64 -75 -112t-112 -75q-64 -28 -137 -28zM672 480h-128v128q0 13 -9.5 22.5t-22.5 9.5t-22.5 -9.5
t-9.5 -22.5v-128h-128q-13 0 -22.5 -9.5t-9.5 -22.5t9.5 -22.5t22.5 -9.5h128v-128q0 -13 9.5 -22.5t22.5 -9.5t22.5 9.5t9.5 22.5v128h128q13 0 22.5 9.5t9.5 22.5t-9.5 22.5t-22.5 9.5z" />
    <glyph glyph-name="uniE933" unicode="&#xe933;" 
d="M800 480h-256v256q0 13 -9.5 22.5t-22.5 9.5t-22.5 -9.5t-9.5 -22.5v-256h-256q-13 0 -22.5 -9.5t-9.5 -22.5t9.5 -22.5t22.5 -9.5h256v-256q0 -13 9.5 -22.5t22.5 -9.5t22.5 9.5t9.5 22.5v256h256q13 0 22.5 9.5t9.5 22.5t-9.5 22.5t-22.5 9.5z" />
    <glyph glyph-name="uniE934" unicode="&#xe934;" 
d="M512 864q-86 0 -162 -33q-76 -32 -132.5 -88.5t-88.5 -132.5q-33 -76 -33 -162t33 -162q32 -76 88.5 -132.5t132.5 -88.5q76 -33 162 -33t162 33q76 32 132.5 88.5t88.5 132.5q33 76 33 162t-33 162q-32 76 -88.5 132.5t-132.5 88.5q-76 33 -162 33zM512 96
q-73 0 -137 28q-64 27 -112 75t-75 112q-28 64 -28 137t28 137q27 64 75 112t112 75q64 28 137 28t137 -28q64 -27 112 -75t75 -112q28 -64 28 -137t-28 -137q-27 -64 -75 -112t-112 -75q-64 -28 -137 -28zM514 672h-1.5h-0.5q-18 0 -31 -13t-12 -31v-0.5v-1.5v0v0l11 -244
q1 -12 10 -21t22 -9t22 9t10 21l11 244q1 9 -2 17t-9 15q-6 6 -13.5 9.5t-16.5 4.5zM552 264q0 -16 -11.5 -28t-28.5 -12t-28.5 12t-11.5 28q0 17 11.5 28.5t28.5 11.5t28.5 -11.5t11.5 -28.5z" />
    <glyph glyph-name="uniE935" unicode="&#xe935;" 
d="M464 335q0 -19 14 -33t34 -14t34 14t14 33l16 431q1 13 -3.5 24.5t-13.5 20.5q-9 10 -21.5 15.5t-25.5 5.5t-25.5 -5.5t-21.5 -15.5q-9 -9 -13.5 -20.5t-3.5 -24.5zM576 128q0 -27 -18.5 -45.5t-45.5 -18.5t-45.5 18.5t-18.5 45.5t18.5 45.5t45.5 18.5t45.5 -18.5
t18.5 -45.5z" />
    <glyph glyph-name="uniE936" unicode="&#xe936;" 
d="M684 480h-267l104 105q10 10 10 23t-10 23q-9 9 -22.5 9t-22.5 -10l-159 -160q-9 -9 -9 -22t9 -23l159 -160q5 -4 10.5 -6.5t12.5 -2.5q6 0 12 2.5t10 6.5q10 9 10 22.5t-9 22.5l-105 106h267q13 0 22.5 9.5t9.5 22.5t-9.5 22.5t-22.5 9.5v0zM512 864q-86 0 -162 -33
q-76 -32 -132.5 -88.5t-88.5 -132.5q-33 -76 -33 -162t33 -162q32 -76 88.5 -132.5t132.5 -88.5q76 -33 162 -33t162 33q76 32 132.5 88.5t88.5 132.5q33 76 33 162t-33 162q-32 76 -88.5 132.5t-132.5 88.5q-76 33 -162 33zM512 96q-73 0 -137 28q-64 27 -112 75t-75 112
q-28 64 -28 137t28 137q27 64 75 112t112 75q64 28 137 28t137 -28q64 -27 112 -75t75 -112q28 -64 28 -137t-28 -137q-27 -64 -75 -112t-112 -75q-64 -28 -137 -28z" />
    <glyph glyph-name="uniE937" unicode="&#xe937;" 
d="M824 496h-508l206 206q14 14 14 34t-14 34t-34 14t-34 -14l-288 -288q-14 -14 -14 -34t14 -34l288 -288q7 -7 16 -10.5t18 -3.5t18 3.5t16 10.5q14 14 14 34t-14 34l-206 206h508q20 0 34 14t14 34t-14 34t-34 14z" />
    <glyph glyph-name="uniE938" unicode="&#xe938;" 
d="M649 457l-105 -104v267q0 13 -9.5 22.5t-22.5 9.5t-22.5 -9.5t-9.5 -22.5v-267l-105 104q-10 10 -23 10t-23 -10q-9 -9 -9 -22.5t10 -22.5l160 -159q4 -4 10 -6.5t12 -2.5t12 2.5t11 6.5l160 159q9 9 9 22.5t-9 22.5q-10 10 -23 10t-23 -10v0zM512 864q-86 0 -162 -33
q-76 -32 -132.5 -88.5t-88.5 -132.5q-33 -76 -33 -162t33 -162q32 -76 88.5 -132.5t132.5 -88.5q76 -33 162 -33t162 33q76 32 132.5 88.5t88.5 132.5q33 76 33 162t-33 162q-32 76 -88.5 132.5t-132.5 88.5q-76 33 -162 33zM512 96q-73 0 -137 28q-64 27 -112 75t-75 112
q-28 64 -28 137t28 137q27 64 75 112t112 75q64 28 137 28t137 -28q64 -27 112 -75t75 -112q28 -64 28 -137t-28 -137q-27 -64 -75 -112t-112 -75q-64 -28 -137 -28z" />
    <glyph glyph-name="uniE939" unicode="&#xe939;" 
d="M834 458q-14 14 -34 14t-34 -14l-206 -206v508q0 20 -14 34t-34 14t-34 -14t-14 -34v-508l-206 206q-14 14 -34 14t-34 -14t-14 -34t14 -34l288 -288q7 -7 16 -10.5t18 -3.5t18 3.5t16 10.5l288 288q14 14 14 34t-14 34v0z" />
    <glyph glyph-name="uniE93A" unicode="&#xe93a;" 
d="M548 631q-9 9 -22.5 9t-22.5 -9q-10 -9 -10 -22.5t10 -22.5l104 -106h-267q-13 0 -22.5 -9.5t-9.5 -22.5t9.5 -22.5t22.5 -9.5h267l-104 -105q-10 -10 -10 -23t10 -22q4 -5 10 -7.5t12 -2.5q7 0 12.5 2.5t10.5 7.5l159 160q9 9 9 22t-9 23l-159 160v0zM512 864
q-86 0 -162 -33q-76 -32 -132.5 -88.5t-88.5 -132.5q-33 -76 -33 -162t33 -162q32 -76 88.5 -132.5t132.5 -88.5q76 -33 162 -33t162 33q76 32 132.5 88.5t88.5 132.5q33 76 33 162t-33 162q-32 76 -88.5 132.5t-132.5 88.5q-76 33 -162 33zM512 96q-73 0 -137 28
q-64 27 -112 75t-75 112q-28 64 -28 137t28 137q27 64 75 112t112 75q64 28 137 28t137 -28q64 -27 112 -75t75 -112q28 -64 28 -137t-28 -137q-27 -64 -75 -112t-112 -75q-64 -28 -137 -28z" />
    <glyph glyph-name="uniE93B" unicode="&#xe93b;" 
d="M858 482l-288 288q-14 14 -34 14t-34 -14t-14 -34t14 -34l206 -206h-508q-20 0 -34 -14t-14 -34t14 -34t34 -14h508l-206 -206q-14 -14 -14 -34t14 -34q7 -7 16 -10.5t18 -3.5t18 3.5t16 10.5l288 288q14 14 14 34t-14 34v0z" />
    <glyph glyph-name="uniE93C" unicode="&#xe93c;" 
d="M535 643q-10 9 -23 9t-22 -9l-160 -159q-10 -9 -10 -22.5t9 -22.5q10 -10 23 -10t23 10l105 104v-267q0 -13 9.5 -22.5t22.5 -9.5t22.5 9.5t9.5 22.5v267l105 -104q5 -5 11 -7.5t12 -2.5t12 2.5t11 7.5q9 9 9 22.5t-9 22.5l-160 159v0zM512 864q-86 0 -162 -33
q-76 -32 -132.5 -88.5t-88.5 -132.5q-33 -76 -33 -162t33 -162q32 -76 88.5 -132.5t132.5 -88.5q76 -33 162 -33t162 33q76 32 132.5 88.5t88.5 132.5q33 76 33 162t-33 162q-32 76 -88.5 132.5t-132.5 88.5q-76 33 -162 33zM512 96q-73 0 -137 28q-64 27 -112 75t-75 112
q-28 64 -28 137t28 137q27 64 75 112t112 75q64 28 137 28t137 -28q64 -27 112 -75t75 -112q28 -64 28 -137t-28 -137q-27 -64 -75 -112t-112 -75q-64 -28 -137 -28z" />
    <glyph glyph-name="uniE93D" unicode="&#xe93d;" 
d="M834 506l-288 288q-14 14 -34 14t-34 -14l-288 -288q-14 -14 -14 -34t14 -34t34 -14t34 14l206 206v-508q0 -20 14 -34t34 -14t34 14t14 34v508l206 -206q7 -7 15.5 -10.5t18.5 -3.5q9 0 18 3.5t16 10.5q14 14 14 34t-14 34v0z" />
    <glyph glyph-name="uniE93E" unicode="&#xe93e;" 
d="M704 896h-384q-53 0 -90.5 -37.5t-37.5 -90.5v-736q0 -9 5 -17t14 -12q8 -4 17.5 -2.5t16.5 7.5l267 237l267 -237q4 -4 9.5 -6t11.5 -2q3 0 6.5 0.5t6.5 2.5q9 4 14 12t5 17v736q0 53 -37.5 90.5t-90.5 37.5zM768 103l-235 209q-4 4 -9.5 6t-11.5 2t-11.5 -2t-9.5 -6
l-235 -209v665q0 26 19 45t45 19h384q26 0 45 -19t19 -45v-665z" />
    <glyph glyph-name="uniE93F" unicode="&#xe93f;" 
d="M957 193q-4 9 -11.5 18.5t-20.5 22.5q-27 28 -77 59t-77 45q-21 10 -35.5 16t-28.5 6v0q-17 0 -31 -7.5t-30 -19.5q-2 -1 -4.5 -3t-4.5 -4q-16 -11 -23 -14.5t-15 -2.5q-15 4 -54.5 27t-80.5 64t-65 81t-27 56q-2 7 1.5 14t14.5 22q2 2 4 4.5t4 5.5q10 14 17.5 28t7.5 32
q0 14 -5.5 28.5t-14.5 34.5q-14 29 -45.5 78.5t-58.5 76.5q-14 13 -23.5 20.5t-18.5 11.5q-14 5 -25.5 2t-18.5 -6q-1 -1 -2.5 -1.5t-3.5 -1.5q-15 -6 -29 -13.5t-28 -16.5q-24 -16 -42.5 -34t-30.5 -45q-11 -22 -9.5 -77.5t56.5 -156.5q49 -89 92.5 -146.5t115.5 -129.5
q74 -74 137.5 -119.5t138.5 -87.5q62 -34 104.5 -47t71.5 -13q15 0 30 3t29 10q27 13 45 31t34 42q9 14 16.5 28t13.5 29q1 2 1.5 3.5t1.5 2.5q3 7 6 18.5t-2 25.5v0z" />
    <glyph glyph-name="uniE940" unicode="&#xe940;" 
d="M568 628q-6 0 -11 -2t-9 -5l-179 -148q-10 -9 -11 -22t7 -23q1 -2 2 -3l2 -2l179 -148q10 -8 23 -7t22 11q3 5 5 10t2 11v296q0 14 -9.5 23t-22.5 9zM512 864q-86 0 -162 -33q-76 -32 -132.5 -88.5t-88.5 -132.5q-33 -76 -33 -162t33 -162q32 -76 88.5 -132.5
t132.5 -88.5q76 -33 162 -33t162 33q76 32 132.5 88.5t88.5 132.5q33 76 33 162t-33 162q-32 76 -88.5 132.5t-132.5 88.5q-76 33 -162 33zM512 96q-73 0 -137 28q-64 27 -112 75t-75 112q-28 64 -28 137t28 137q27 64 75 112t112 75q64 28 137 28t137 -28q64 -27 112 -75
t75 -112q28 -64 28 -137t-28 -137q-27 -64 -75 -112t-112 -75q-64 -28 -137 -28z" />
    <glyph glyph-name="uniE941" unicode="&#xe941;" 
d="M644 764l-326 -280q-16 -12 -17 -32t11 -35l3 -3t3 -2l326 -280q23 -20 51 -7t28 43v560q0 30 -28 43t-51 -7v0z" />
    <glyph glyph-name="uniE942" unicode="&#xe942;" 
d="M660 536h-296q-6 0 -11 -2t-10 -5q-10 -9 -11 -22t7 -23l148 -179l2 -2t3 -2q10 -8 23 -7t22 11l148 179q3 4 5 9t2 11q0 13 -9 22.5t-23 9.5v0zM512 864q-86 0 -162 -33q-76 -32 -132.5 -88.5t-88.5 -132.5q-33 -76 -33 -162t33 -162q32 -76 88.5 -132.5t132.5 -88.5
q76 -33 162 -33t162 33q76 32 132.5 88.5t88.5 132.5q33 76 33 162t-33 162q-32 76 -88.5 132.5t-132.5 88.5q-76 33 -162 33zM512 96q-73 0 -137 28q-64 27 -112 75t-75 112q-28 64 -28 137t28 137q27 64 75 112t112 75q64 28 137 28t137 -28q64 -27 112 -75t75 -112
q28 -64 28 -137t-28 -137q-27 -64 -75 -112t-112 -75q-64 -28 -137 -28z" />
    <glyph glyph-name="uniE943" unicode="&#xe943;" 
d="M792 659h-560q-30 0 -43 -28t7 -51l280 -326q12 -15 32 -16.5t35 11.5q2 1 3 2t2 3l280 326q20 23 7 51t-43 28v0z" />
    <glyph glyph-name="uniE944" unicode="&#xe944;" 
d="M655 473l-179 148q-10 8 -23 7t-22 -11q-3 -5 -5 -10t-2 -11v-296q0 -14 9.5 -23t22.5 -9q6 0 11 1.5t9 5.5l179 148q10 9 11 22t-7 23q-1 2 -2 3zM512 864q-86 0 -162 -33q-76 -32 -132.5 -88.5t-88.5 -132.5q-33 -76 -33 -162t33 -162q32 -76 88.5 -132.5t132.5 -88.5
q76 -33 162 -33t162 33q76 32 132.5 88.5t88.5 132.5q33 76 33 162t-33 162q-32 76 -88.5 132.5t-132.5 88.5q-76 33 -162 33zM512 96q-73 0 -137 28q-64 27 -112 75t-75 112q-28 64 -28 137t28 137q27 64 75 112t112 75q64 28 137 28t137 -28q64 -27 112 -75t75 -112
q28 -64 28 -137t-28 -137q-27 -64 -75 -112t-112 -75q-64 -28 -137 -28z" />
    <glyph glyph-name="uniE945" unicode="&#xe945;" 
d="M712 479l-3 3t-3 2l-326 280q-23 20 -51 7t-28 -43v-560q0 -30 28 -43t51 7l326 280q15 13 16.5 32.5t-10.5 34.5v0z" />
    <glyph glyph-name="uniE946" unicode="&#xe946;" 
d="M537 591q-9 10 -22 11t-23 -7q-2 -1 -3 -2l-2 -2l-148 -179q-8 -10 -7 -23t11 -22q5 -3 10 -5t11 -2h296q14 0 23 9.5t9 22.5q0 6 -1.5 11t-5.5 9l-148 179v0zM512 864q-86 0 -162 -33q-76 -32 -132.5 -88.5t-88.5 -132.5q-33 -76 -33 -162t33 -162q32 -76 88.5 -132.5
t132.5 -88.5q76 -33 162 -33t162 33q76 32 132.5 88.5t88.5 132.5q33 76 33 162t-33 162q-32 76 -88.5 132.5t-132.5 88.5q-76 33 -162 33zM512 96q-73 0 -137 28q-64 27 -112 75t-75 112q-28 64 -28 137t28 137q27 64 75 112t112 75q64 28 137 28t137 -28q64 -27 112 -75
t75 -112q28 -64 28 -137t-28 -137q-27 -64 -75 -112t-112 -75q-64 -28 -137 -28z" />
    <glyph glyph-name="uniE947" unicode="&#xe947;" 
d="M828 316l-280 326q-12 16 -32 17t-35 -11l-3 -3t-2 -3l-280 -326q-20 -23 -7 -51t43 -28h560q30 0 43 28t-7 51z" />
    <glyph glyph-name="uniE948" unicode="&#xe948;" 
d="M416 128q0 -27 -18.5 -45.5t-45.5 -18.5t-45.5 18.5t-18.5 45.5t18.5 45.5t45.5 18.5t45.5 -18.5t18.5 -45.5zM864 128q0 -27 -18.5 -45.5t-45.5 -18.5t-45.5 18.5t-18.5 45.5t18.5 45.5t45.5 18.5t45.5 -18.5t18.5 -45.5zM916 715q-5 8 -13 13t-17 7q-2 0 -4.5 0.5
t-5.5 0.5v0v0h-608l-12 70q-2 11 -11 18.5t-21 7.5h-128q-13 0 -22.5 -9.5t-9.5 -22.5t9.5 -22.5t22.5 -9.5h101l92 -518q2 -11 10.5 -18.5t20.5 -7.5h512q13 0 22.5 9.5t9.5 22.5t-9.5 22.5t-22.5 9.5h-485l-11 64h483v0v0q17 0 30.5 11t16.5 28l58 288q1 9 -0.5 18.5
t-7.5 17.5zM806 416h-482l-45 256h578z" />
    <glyph glyph-name="uniE949" unicode="&#xe949;" 
d="M816 864v0v0h-608q-59 0 -101.5 -42.5t-42.5 -101.5v-384q0 -59 42.5 -101.5t101.5 -42.5h48v-128q0 -9 5 -17t13 -12q4 -1 7.5 -2t6.5 -1q6 0 11 2t9 5l183 153h325q59 0 101.5 42.5t42.5 101.5v384q0 59 -42.5 101.5t-101.5 42.5zM896 336q0 -33 -23.5 -56.5
t-56.5 -23.5h-330q-9 0 -17 -3t-14 -8l-135 -113v92q0 13 -9.5 22.5t-22.5 9.5h-80q-33 0 -56.5 23.5t-23.5 56.5v384q0 33 23.5 56.5t56.5 23.5h608q33 0 56.5 -23.5t23.5 -56.5v-384z" />
    <glyph glyph-name="uniE94A" unicode="&#xe94a;" 
d="M725 633q-11 8 -24 7t-21 -11l-246 -292l-90 100q-9 10 -22 11t-23 -8t-11 -22.5t8 -22.5l115 -128q5 -6 11 -8.5t13 -2.5h0.5h0.5q7 0 13 3t11 8l269 320q8 11 7 24t-11 22v0zM800 864h-576q-53 0 -90.5 -37.5t-37.5 -90.5v-576q0 -53 37.5 -90.5t90.5 -37.5h576
q53 0 90.5 37.5t37.5 90.5v576q0 53 -37.5 90.5t-90.5 37.5zM864 160q0 -26 -19 -45t-45 -19h-576q-26 0 -45 19t-19 45v576q0 26 19 45t45 19h576q26 0 45 -19t19 -45v-576z" />
    <glyph glyph-name="uniE94B" unicode="&#xe94b;" 
d="M436 448l254 254q14 14 14 34t-14 34t-34 14t-34 -14l-288 -288q-14 -14 -14 -34t14 -34l288 -288q7 -7 16 -10.5t18 -3.5t18 3.5t16 10.5q14 14 14 34t-14 34z" />
    <glyph glyph-name="uniE94C" unicode="&#xe94c;" 
d="M834 626q-14 14 -34 14t-34 -14l-254 -254l-254 254q-14 14 -34 14t-34 -14t-14 -34t14 -34l288 -288q7 -7 16 -10.5t18 -3.5t18 3.5t16 10.5l288 288q14 14 14 34t-14 34z" />
    <glyph glyph-name="uniE94D" unicode="&#xe94d;" 
d="M690 482l-288 288q-14 14 -34 14t-34 -14t-14 -34t14 -34l254 -254l-254 -254q-14 -14 -14 -34t14 -34q7 -7 16 -10.5t18 -3.5t18 3.5t16 10.5l288 288q14 14 14 34t-14 34v0z" />
    <glyph glyph-name="uniE94E" unicode="&#xe94e;" 
d="M834 338l-288 288q-14 14 -34 14t-34 -14l-288 -288q-14 -14 -14 -34t14 -34t34 -14t34 14l254 254l254 -254q7 -7 15.5 -10.5t18.5 -3.5q9 0 18 3.5t16 10.5q14 14 14 34t-14 34z" />
    <glyph glyph-name="uniE94F" unicode="&#xe94f;" 
d="M557 448l202 201q9 10 9 23t-9 23q-10 9 -23 9t-23 -9l-201 -202l-201 202q-10 9 -23 9t-23 -9q-9 -10 -9 -23t9 -23l202 -201l-202 -201q-9 -10 -9 -23t9 -23q5 -4 11 -6.5t12 -2.5t12 2.5t11 6.5l201 202l201 -202q5 -4 11 -6.5t12 -2.5t12 2.5t11 6.5q9 10 9 23t-9 23
l-202 201v0z" />
    <glyph glyph-name="uniE950" unicode="&#xe950;" 
d="M388 407q0 -29 -20.5 -49.5t-49.5 -20.5t-49.5 20.5t-20.5 49.5t20.5 49.5t49.5 20.5t49.5 -20.5t20.5 -49.5zM450 610q0 -29 -20.5 -49.5t-49.5 -20.5t-49.5 20.5t-20.5 49.5t20.5 49.5t49.5 20.5t49.5 -20.5t20.5 -49.5zM551 253q0 -29 -20.5 -49.5t-49.5 -20.5
t-49.5 20.5t-20.5 49.5t20.5 49.5t49.5 20.5t49.5 -20.5t20.5 -49.5zM960 469q0 13 -9.5 22t-21.5 9q-29 0 -56 10.5t-49 30.5q-25 22 -39 52t-14 64q0 16 -7 30.5t-19 24.5q-11 11 -26.5 16t-31.5 4q-33 -3 -64.5 7t-56.5 33q-21 19 -34.5 44t-17.5 52q-1 13 -11 21t-23 7
q-43 -3 -85 -15q-42 -11 -80.5 -30t-72.5 -45q-35 -26 -64 -58q-30 -35 -53 -74t-37.5 -81t-20.5 -86q-5 -45 -2 -90q3 -46 15 -89q13 -44 33 -83.5t48 -74.5t64 -65q61 -50 134.5 -77t152.5 -27q8 0 16 0.5t16 0.5q44 3 85 15q42 11 80.5 29.5t72.5 44.5q35 26 64 59t52 70
q22 38 36.5 78.5t21.5 83.5q6 43 4 87v0zM798 193q-50 -56 -117 -89t-142 -38t-145.5 18t-127.5 71q-61 50 -96.5 119t-40.5 147q-6 79 19 152t78 132q45 51 104.5 83t126.5 41q9 -30 25.5 -57t40.5 -48q35 -31 79.5 -45.5t90.5 -10.5q4 0 6.5 -1t3.5 -2t2.5 -3.5t1.5 -5.5
q0 -47 19.5 -89.5t54.5 -73.5q24 -22 53.5 -36t61.5 -19q-2 -68 -27 -131t-71 -114v0zM634 510q0 -29 -20.5 -49.5t-49.5 -20.5t-49.5 20.5t-20.5 49.5t20.5 49.5t49.5 20.5t49.5 -20.5t20.5 -49.5v0zM741 299q0 -29 -20.5 -49.5t-49.5 -20.5t-49.5 20.5t-20.5 49.5
t20.5 49.5t49.5 20.5t49.5 -20.5t20.5 -49.5z" />
    <glyph glyph-name="uniE951" unicode="&#xe951;" 
d="M832 565q-12 0 -20.5 -8.5t-8.5 -20.5v-349q0 -15 -15 -26.5t-36 -11.5h-480q-21 0 -36 11.5t-15 26.5v349q0 12 -8.5 20.5t-20.5 8.5t-20.5 -8.5t-8.5 -20.5v-349q0 -40 32 -68t77 -28h480q45 0 77 28t32 68v349q0 12 -8.5 20.5t-20.5 8.5zM489 259q5 -4 11 -6.5
t12 -2.5t12 2.5t11 6.5l160 160q9 10 9 23t-9 23q-10 9 -23 9t-23 -9l-105 -106v409q0 13 -9.5 22.5t-22.5 9.5t-22.5 -9.5t-9.5 -22.5v-409l-105 106q-10 9 -23 9t-23 -9q-9 -10 -9 -23t9 -23l160 -160v0z" />
    <glyph glyph-name="uniE952" unicode="&#xe952;" 
d="M925 234v0q-28 28 -78 59.5t-77 44.5q-20 11 -34.5 16.5t-28.5 5.5q-17 0 -31 -7.5t-30 -19.5q-2 -1 -4 -3t-5 -3q-15 -12 -22 -15.5t-15 -2.5q-15 4 -54.5 26.5t-81.5 64.5t-65.5 82t-26.5 55q-2 7 1 13.5t15 22.5q2 2 4 4.5t4 5.5q10 14 17.5 28t7.5 32q0 14 -5.5 28.5
t-14.5 34.5q-14 30 -45.5 79t-59.5 76q-13 13 -22.5 20.5t-18.5 11.5q-15 5 -26 2t-18 -6l-3 -1.5l-3 -1.5v0q-15 -6 -29.5 -13.5t-27.5 -16.5q-24 -16 -42.5 -34t-31.5 -45q-10 -22 -9 -78t57 -156q49 -89 92.5 -146.5t114.5 -129.5q75 -74 137.5 -118.5t139.5 -88.5
q62 -34 104.5 -47t71.5 -13q19 0 33.5 4t25.5 9q23 11 41.5 28t37.5 45l16 28t14 29q1 1 1.5 2.5t1.5 3.5q3 7 6 18t-2 26q-4 9 -11.5 18.5t-20.5 22.5v0zM891 168q-5 -12 -11 -23.5t-14 -22.5q-14 -21 -25.5 -32.5t-26.5 -18.5q-11 -5 -47.5 -6t-129.5 51
q-73 41 -132.5 83.5t-129.5 112.5q-69 69 -109.5 123t-87.5 139q-49 89 -48.5 129.5t3.5 46.5q7 15 18.5 26.5t32.5 26.5q11 7 22.5 13t23.5 11q2 1 3.5 1.5t2.5 1.5q3 -2 6.5 -5.5l9.5 -9.5q22 -21 50.5 -66t40.5 -70l10 -22t5 -15q0 -1 -3.5 -6.5t-9.5 -14.5q-2 -3 -4 -5
t-4 -5q-12 -17 -23 -37.5t-5 -50.5q6 -27 35.5 -75t74.5 -94q45 -45 92 -73t75 -34q31 -7 52 4.5t38 24.5q2 1 4 3t4 3q4 3 12 8.5t11 6.5q3 0 13 -5l22 -11q28 -14 72.5 -42.5t64.5 -48.5q6 -6 9.5 -10t5.5 -6q-1 -1 -1.5 -2.5t-1.5 -3.5zM886 934h-304q-36 0 -62 -26
t-26 -62v-192q0 -36 26 -62t62 -26h8v-48q0 -9 5 -17t13 -12q4 -1 7.5 -2t6.5 -1q6 0 11 2t9 5l87 73h157q36 0 62 26t26 62v192q0 36 -26 62t-62 26zM910 654q0 -10 -7 -17t-17 -7h-165q-7 0 -13.5 -2.5t-12.5 -6.5l-41 -35v12q0 13 -9.5 22.5t-22.5 9.5h-40q-10 0 -17 7
t-7 17v192q0 10 7 17t17 7h304q10 0 17 -7t7 -17v-192zM670 750q0 -13 -9.5 -22.5t-22.5 -9.5t-22.5 9.5t-9.5 22.5t9.5 22.5t22.5 9.5t22.5 -9.5t9.5 -22.5zM766 750q0 -13 -9.5 -22.5t-22.5 -9.5t-22.5 9.5t-9.5 22.5t9.5 22.5t22.5 9.5t22.5 -9.5t9.5 -22.5zM862 750
q0 -13 -9.5 -22.5t-22.5 -9.5t-22.5 9.5t-9.5 22.5t9.5 22.5t22.5 9.5t22.5 -9.5t9.5 -22.5z" />
    <glyph glyph-name="uniE953" unicode="&#xe953;" 
d="M512 832q-79 0 -149 -30t-122.5 -82.5t-82.5 -122.5t-30 -149t30 -149t82.5 -122.5t122.5 -82.5t149 -30t149 30t122.5 82.5t82.5 122.5t30 149t-30 149t-82.5 122.5t-122.5 82.5t-149 30zM512 128q-66 0 -124 25q-59 25 -102.5 68.5t-68.5 102.5q-25 58 -25 124t25 124
q25 59 68.5 102.5t102.5 68.5q58 25 124 25t124 -25q59 -25 102.5 -68.5t68.5 -102.5q25 -58 25 -124t-25 -124q-25 -59 -68.5 -102.5t-102.5 -68.5q-58 -25 -124 -25zM577 660q-12 6 -29 9t-37 3q-27 0 -49.5 -7.5t-40.5 -22.5q-34 -27 -41.5 -54.5t-7.5 -30.5l56 -3v0v0
l4.5 14.5t24.5 30.5q10 8 24 12.5t31 4.5q14 0 25 -2t16 -4q32 -16 37.5 -33t5.5 -24q0 -27 -15.5 -43t-44.5 -35q-31 -21 -46.5 -47.5t-15.5 -59.5q0 -12 8 -20t20 -8t20 8t8 20q0 14 6 29t31 31q28 19 56.5 46.5t28.5 78.5q0 35 -19.5 62.5t-55.5 44.5v0zM540 264
q0 -17 -11.5 -28.5t-28.5 -11.5t-28.5 11.5t-11.5 28.5t11.5 28.5t28.5 11.5t28.5 -11.5t11.5 -28.5z" />
    <glyph glyph-name="uniE954" unicode="&#xe954;" 
d="M696 757q-15 17 -33.5 30.5t-41.5 24.5q-20 10 -48.5 15t-60.5 5q-45 -1 -83 -13.5t-67 -36.5q-58 -48 -70 -97t-12 -51l80 -4v0q0 1 8 30.5t45 59.5q19 16 43.5 24t56.5 8q26 0 45 -3.5t28 -7.5q39 -20 58.5 -47t19.5 -62q0 -51 -28 -80.5t-79 -64.5q-53 -36 -77 -78
t-24 -97q0 -16 12 -28t28 -12t28 11.5t12 28.5q0 29 12.5 54.5t53.5 54.5q50 34 96 80t46 131q0 36 -12 67.5t-36 57.5zM560 160q0 -27 -18.5 -45.5t-45.5 -18.5t-45.5 18.5t-18.5 45.5t18.5 45.5t45.5 18.5t45.5 -18.5t18.5 -45.5z" />
    <glyph glyph-name="uniE955" unicode="&#xe955;" 
d="M367 371q0 8 -5.5 13t-16.5 5q-4 0 -7 -0.5t-5 -0.5v-37q2 -1 4.5 -1h5.5q11 0 17.5 5.5t6.5 15.5zM619 821h-281q-31 0 -53 -22t-22 -53v-275h-7q-12 0 -21 -9t-9 -21v-182q0 -12 9 -21t21 -9h7v-33q0 -31 22 -53t53 -22h383q31 0 53 22t22 53v449zM305 408q6 1 15.5 2
t22.5 1q14 0 23.5 -2.5t15.5 -7.5t9.5 -12.5t3.5 -17.5q0 -9 -3 -16.5t-8 -13.5q-8 -7 -18.5 -10t-22.5 -3h-5.5t-4.5 1v-45h-28v124v0zM721 167h-383q-12 0 -20.5 8.5t-8.5 19.5v34h358q12 0 21 8.5t9 21.5v182q0 12 -9 21t-21 9h-358v275q0 12 8.5 20.5t20.5 8.5h264v-97
q0 -21 15 -36.5t36 -15.5l96 1l1 -431q0 -12 -8.5 -20.5t-20.5 -8.5v0zM414 284v124q8 1 18 2t20 1q18 0 30.5 -3.5t21.5 -10.5q10 -7 16 -19t6 -28q0 -19 -6 -31.5t-15 -20.5q-10 -8 -25 -12t-34 -4q-11 0 -19 0.5t-13 1.5v0zM618 358v-24h-45v-50h-29v126h77v-24h-48v-28
h45v0zM455 389q-4 0 -7.5 -0.5t-5.5 -0.5v-83q2 0 5 -0.5t5 -0.5q20 0 31.5 11t11.5 34q0 19 -10.5 29.5t-29.5 10.5z" />
    <glyph glyph-name="uniE956" unicode="&#xe956;" 
d="M512 864q-86 0 -162 -33q-76 -32 -132.5 -88.5t-88.5 -132.5q-33 -76 -33 -162t33 -162q32 -76 88.5 -132.5t132.5 -88.5q76 -33 162 -33t162 33q76 32 132.5 88.5t88.5 132.5q33 76 33 162t-33 162q-32 76 -88.5 132.5t-132.5 88.5q-76 33 -162 33zM512 800
q73 0 137 -28q64 -27 112 -75t75 -112q28 -64 28 -137q0 -47 -12 -90.5t-33 -82.5l-2 2t-3 1q-35 22 -77.5 33t-89.5 11q-45 0 -88.5 -11.5t-78.5 -33.5q-39 -24 -65 -58.5t-37 -77.5q0 -3 -1 -7.5t-2 -9.5q-13 5 -25.5 11.5t-23.5 13.5q0 2 0.5 4t0.5 4q11 42 33.5 77.5
t57.5 64.5q5 4 6 10.5t-3 11.5q-2 2 -4 3l-4 2q-18 6 -39 9t-46 3q-36 0 -72 -9.5t-64 -26.5q-15 33 -23.5 70t-8.5 76q0 73 28 137q27 64 75 112t112 75q64 28 137 28v0zM553 419q19 -21 43.5 -32t50.5 -11t50.5 11t44.5 32q19 22 30.5 48t13.5 55q2 31 -7.5 58.5
t-28.5 48.5q-20 21 -46.5 32t-56.5 11t-56.5 -11t-46.5 -32q-19 -20 -28.5 -48t-7.5 -59q3 -29 14 -55t31 -48zM211 492q4 -51 38 -87t79 -36q44 0 78.5 36t37.5 87q2 26 -6 49t-24 41q-17 18 -39 27t-48 9q-25 0 -47 -9t-39 -27q-16 -17 -24 -40.5t-6 -49.5v0z" />
    <glyph glyph-name="uniE957" unicode="&#xe957;" 
d="M928 454q-1 84 -34 158t-88.5 129.5t-129.5 88.5t-158 34q-88 1 -165 -32q-78 -32 -135.5 -89.5t-89.5 -135.5q-33 -77 -32 -165q1 -84 34 -158t88.5 -129.5t129.5 -88.5t158 -34q88 -1 165 32q78 32 135 89.5t90 135.5q33 77 32 165zM771 209q-3 -2 -6 -2t-6 2v0.5
t-1 0.5q-13 18 -29.5 32.5t-34.5 26.5q-38 25 -85 38t-97 13t-96.5 -13t-85.5 -38q-18 -11 -34.5 -26t-29.5 -33q-2 -3 -5.5 -3t-5.5 2h-1v1q-45 47 -69 107t-25 125q-1 73 26 138t75 114t113 77q64 29 137 29t138 -27q64 -28 112 -76t75 -112q28 -64 28 -137
q0 -66 -24 -128t-69 -111v0zM512 672q-30 0 -55.5 -10.5t-44.5 -31.5q-19 -20 -28.5 -47t-7.5 -56q5 -59 44.5 -101t91.5 -42t91.5 42t44.5 100q2 30 -7 56.5t-29 47.5q-19 20 -45 31t-55 11z" />
    <glyph glyph-name="uniE958" unicode="&#xe958;" 
d="M911 896h-798q-20 0 -34.5 -14.5t-14.5 -34.5v-797q0 -21 14.5 -35.5t34.5 -14.5h399v352h-107v128h107v102q0 87 53 133t131 46q37 0 71 -2t44 -4v-120h-83q-42 0 -54.5 -18.5t-12.5 -47.5v-89h134l-17 -128h-117v-352h249q21 0 35.5 14.5t14.5 34.5v798
q0 20 -14.5 34.5t-34.5 14.5z" />
    <glyph glyph-name="uniE959" unicode="&#xe959;" 
d="M946 517l-4 19h-417v-176h249q-10 -46 -35 -81q-26 -35 -60 -59t-73 -36t-76 -12q-53 0 -106 21t-90 58q-40 39 -61.5 90.5t-22.5 106.5q0 56 23 108.5t59 89.5q37 37 89 56.5t106 19.5q63 0 106 -24.5t60 -39.5l126 124q-14 12 -40 32q-26 19 -63 37.5t-85 31.5
q-49 13 -108 13q-45 0 -90 -9q-44 -8 -85 -25t-79 -41q-37 -25 -69 -56q-31 -32 -55 -69q-24 -38 -40 -79t-24 -84t-8 -85t7 -84q8 -42 23.5 -82t38.5 -77t53 -68q33 -34 72 -59q39 -26 82 -43.5t89 -25.5q47 -9 94 -9q44 0 85 8q42 9 81 25t73 40q35 24 64 54q29 31 51 66
q22 36 36.5 75.5t21.5 82.5q8 42 8 86q0 37 -2.5 58t-3.5 22v0z" />
    <glyph glyph-name="uniE95A" unicode="&#xe95a;" 
d="M111 847q-3 3 -6.5 3t-5.5 -3q-2 -1 -2.5 -2.5t-0.5 -3.5v-786q0 -3 2.5 -5.5t6.5 -2.5q1 0 3 0.5t3 1.5l409 399l-409 399v0zM570 496l122 116l-514 283q-7 4 -11 -2.5t1 -11.5zM168 15q-5 -5 -0.5 -11.5t10.5 -2.5h1l513 283l-122 116zM899 498l-143 79l-135 -129
l135 -129l143 79q29 16 29 50t-29 50v0z" />
    <glyph glyph-name="uniE95B" unicode="&#xe95b;" 
d="M888 896h-747q-31 0 -54 -19.5t-23 -50.5v-749q0 -31 23 -54t54 -23h747q31 0 51.5 23t20.5 54v749q0 30 -20.5 50t-51.5 20v0zM342 149h-129v399h129v-399zM282 609h-1q-31 0 -49.5 20t-18.5 49t19 49t51 20q31 0 49.5 -20t18.5 -49t-18.5 -49t-50.5 -20zM811 149h-129
v218q0 40 -15 64t-50 24q-26 0 -42.5 -14.5t-23.5 -32.5q-2 -6 -3 -14.5t-1 -17.5v-227h-128v399h128v-55q14 20 39.5 42t76.5 22q63 0 105.5 -42.5t42.5 -132.5v-233z" />
    <glyph glyph-name="uniE95C" unicode="&#xe95c;" 
d="M992 741q-27 -12 -55.5 -19.5t-57.5 -11.5q31 18 53 46t34 62q-29 -17 -60.5 -29t-65.5 -18q-28 29 -65.5 45t-77.5 16q-41 0 -77 -15t-62.5 -41.5t-42.5 -61.5q-15 -36 -15 -76q0 -11 1 -22t4 -22q-60 3 -116 18q-57 15 -109 40.5t-98 62.5q-46 36 -83 82
q-13 -22 -20 -47t-7 -51q0 -50 24 -92.5t64 -68.5q-24 0 -46.5 6.5t-43.5 17.5v-2q0 -71 45.5 -124t112.5 -66q-12 -4 -25 -5.5t-26 -1.5q-10 0 -19 1l-18 2q18 -57 68.5 -95t115.5 -39q-53 -41 -116 -62t-129 -21q-12 0 -23.5 0.5t-23.5 2.5q34 -22 70 -38q36 -17 74 -28
t78 -16q39 -6 79 -6q136 0 241 50t176 129.5t108 177.5q36 99 36 195v12v13q29 20 53.5 45.5t44.5 54.5v0z" />
    <glyph glyph-name="uniE95D" unicode="&#xe95d;" 
d="M717 359q-8 4 -38 18.5t-38 17.5t-13.5 3t-11.5 -9q-6 -8 -18 -22.5t-17 -20.5t-10.5 -6.5t-14.5 3.5q-8 4 -32.5 15.5t-56.5 39.5q-25 22 -41 45.5t-21 31.5t-2 13t7 9q3 4 7.5 9.5t8.5 10.5q5 5 7 9t5 9q2 6 1.5 11t-2.5 9q-3 4 -15.5 35t-19.5 47t-13.5 17.5
t-11.5 1.5t-10.5 0.5t-10.5 0.5q-9 -1 -16.5 -4.5t-13.5 -9.5q-8 -9 -23.5 -30.5t-15.5 -62.5t20.5 -75t25.5 -40q2 -2 16 -22t39 -46t59 -54q34 -27 76 -45q16 -7 31.5 -12.5t32.5 -11.5q20 -6 37.5 -6t32.5 2q16 2 42 17.5t33 35.5q7 19 8 34t-1 19q-2 3 -7.5 6t-14.5 7v0
zM829 766q-31 31 -68 55q-36 25 -76.5 41.5t-83.5 25.5q-43 8 -87 8q-92 0 -174 -35q-81 -35 -141.5 -95t-95.5 -141t-35 -173q0 -58 15 -114.5t44 -107.5l-63 -230l237 62q49 -27 103 -40.5t110 -13.5v0q92 0 173 35q82 35 142.5 95t95.5 141t35 173q0 44 -8 87
q-9 43 -25.5 83t-41.5 76q-24 37 -56 68v0zM514 83v0q-50 0 -98 13t-91 38l-14 8l-140 -37l37 137l-8 14q-28 44 -42.5 94t-14.5 102q0 76 29 143q29 68 79.5 118t118.5 79q67 29 144 29t144 -29q68 -29 118 -79t79 -117q29 -68 30 -144q0 -77 -30 -144q-29 -67 -79.5 -117
t-117.5 -79q-68 -29 -144 -29v0z" />
    <glyph glyph-name="uniE95E" unicode="&#xe95e;" 
d="M1017 662q0 68 -43 115.5t-105 47.5q-41 2 -83 3t-84.5 2t-85.5 2h-86h-36h-86q-43 -1 -85.5 -2t-84.5 -2t-83 -3q-61 0 -104.5 -47.5t-43.5 -115.5q-4 -53 -5.5 -106.5t-1.5 -107.5q0 -53 1.5 -106.5t5.5 -106.5q0 -68 43 -115.5t105 -47.5q43 -2 87 -4q45 -1 89.5 -2
t89.5 -2h91h91q45 1 89.5 2t88.5 2l88 4q61 0 104.5 47.5t43.5 115.5q4 53 5.5 106.5t1.5 107.5q0 53 -1.5 106.5t-5.5 106.5v0zM414 252v393l290 -196z" />
    <glyph glyph-name="uniE95F" unicode="&#xe95f;" 
d="M872 608q-23 0 -39.5 -16.5t-16.5 -39.5v-256q0 -23 16.5 -39.5t39.5 -16.5t39.5 16.5t16.5 39.5v256q0 23 -16.5 39.5t-39.5 16.5zM152 608q-23 0 -39.5 -16.5t-16.5 -39.5v-256q0 -23 16.5 -39.5t39.5 -16.5t39.5 16.5t16.5 39.5v256q0 23 -16.5 39.5t-39.5 16.5z
M248 224q0 -27 18.5 -45.5t45.5 -18.5h40v-136q0 -23 16.5 -39.5t39.5 -16.5t39.5 16.5t16.5 39.5v136h96v-136q0 -23 16.5 -39.5t39.5 -16.5t39.5 16.5t16.5 39.5v136h40q27 0 45.5 18.5t18.5 45.5v384h-528v-384zM768 688q-12 44 -40 80.5t-68 61.5q-2 1 -4.5 2.5
t-4.5 2.5t-4.5 2.5t-4.5 2.5l10 18l32 58q1 3 0.5 6t-3.5 5v0v0q-1 0 -2 0.5t-2 0.5q-3 0 -5 -1t-3 -3l-42 -77q-3 1 -5 2t-5 2q-2 1 -4.5 2t-5.5 2q-46 16 -95 16t-95 -16q-3 -1 -5 -2t-5 -2q-2 -1 -4.5 -2t-5.5 -2l-10 19l-32 58q-2 3 -5.5 3.5t-6.5 -0.5q-3 -2 -3.5 -5.5
t0.5 -6.5l42 -75q-2 -1 -4.5 -2.5t-4.5 -2.5t-4.5 -2.5t-4.5 -2.5q-40 -25 -68 -61.5t-40 -80.5q-4 -11 -5.5 -23.5t-2.5 -24.5h528q0 12 -2 24t-6 24zM392 720q-10 0 -17 7t-7 17t7 17t17 7t17 -7t7 -17t-7 -17t-17 -7zM632 720q-10 0 -17 7t-7 17t7 17t17 7t17 -7t7 -17
t-7 -17t-17 -7z" />
    <glyph glyph-name="uniE960" unicode="&#xe960;" 
d="M829 765q-32 32 -69 56q-36 24 -76.5 41t-83.5 25q-43 9 -88 9t-88 -9q-43 -8 -83.5 -25t-76.5 -41q-37 -24 -69 -56t-56 -69q-24 -36 -41 -76.5t-25 -83.5q-9 -43 -9 -88t9 -88q8 -43 25 -83.5t41 -76.5q24 -37 56 -69t69 -56q36 -24 76.5 -41t83.5 -25q43 -9 88 -9
t88 9q43 8 83.5 25t76.5 41q37 24 69 56t56 69q24 36 41 76.5t25 83.5q9 43 9 88t-9 88q-8 43 -25 83.5t-41 76.5q-24 37 -56 69v0zM895 480h-126q-2 48 -10 92.5t-21 85.5q17 8 33.5 18t32.5 21q38 -45 61.5 -100t29.5 -117zM544 826q25 -11 50 -36t46 -63q5 -8 9 -16.5
t8 -16.5q-27 -9 -55.5 -14.5t-57.5 -7.5v154zM671 798q23 -11 45 -25t42 -30q-10 -7 -20.5 -13t-21.5 -12q-10 22 -21.5 42t-23.5 38v0zM384 727q21 38 45.5 63t50.5 36v-154q-29 2 -57.5 7.5t-55.5 14.5q4 8 8 16.5t9 16.5v0zM308 718q-11 6 -21.5 12t-20.5 13
q20 16 41.5 30t45.5 25q-12 -18 -23.5 -38t-21.5 -42zM480 608v-128h-161q2 40 8.5 79t17.5 75q32 -11 66 -17.5t69 -8.5zM480 416v-128q-35 -2 -69 -8.5t-66 -17.5q-11 36 -17.5 74.5t-8.5 79.5h161zM480 224v-154q-25 11 -50 36t-46 63q-5 8 -9 16.5t-8 16.5
q27 9 55.5 14.5t57.5 7.5zM353 98q-23 11 -45 25t-42 30q10 7 20.5 13t21.5 12q10 -22 21.5 -42t23.5 -38zM640 169q-21 -38 -45.5 -63t-50.5 -36v154q29 -2 57.5 -7.5t55.5 -14.5q-4 -8 -8 -16.5t-9 -16.5v0zM716 178q11 -6 21.5 -12t20.5 -13q-20 -16 -41.5 -30t-45.5 -25
q12 18 23.5 38t21.5 42v0zM544 288v128h161q-2 -40 -8.5 -79t-17.5 -75q-32 11 -66 17.5t-69 8.5zM544 480v128q35 2 69 8.5t66 17.5q11 -36 17.5 -74.5t8.5 -79.5h-161zM220 697q16 -11 32.5 -21t33.5 -18q-13 -40 -20.5 -85t-10.5 -93h-126q5 62 29 117t62 100zM129 416
h126q2 -48 10 -92.5t21 -85.5q-17 -8 -33.5 -18t-32.5 -21q-38 45 -61.5 100t-29.5 117zM804 199q-16 11 -32.5 21t-33.5 18q13 40 20.5 85t10.5 93h126q-5 -62 -29 -117t-62 -100z" />
    <glyph glyph-name="uniE961" unicode="&#xe961;" 
d="M794 706h-119v47q0 67 -47 114t-114 47q-66 0 -113.5 -47t-47.5 -114v-47h-119q-13 0 -22.5 -9.5t-9.5 -22.5v-502q0 -13 9.5 -22.5t22.5 -9.5h560q14 0 23 9.5t9 22.5v502q0 13 -9 22.5t-23 9.5zM418 753q0 40 28.5 68.5t68.5 28.5t68.5 -28.5t28.5 -68.5v-47h-194v47z
M762 204v0h-496v438h87v-77q0 -3 0.5 -5.5t0.5 -5.5h64q0 2 -0.5 5t-0.5 6v77h194v-77v-6v-5h64v5.5v5.5v77h87v-438v0z" />
    <glyph glyph-name="uniE962" unicode="&#xe962;" 
d="M926 211l-32 112q0 1 0.5 2t1.5 2q0 1 1 1.5t1 1.5l1 1q30 44 45.5 95t15.5 104q0 71 -27 136.5t-79 117.5q-54 54 -124.5 83t-148.5 29q-66 0 -128 -21.5t-113 -61.5q-50 -40 -84 -93.5t-47 -114.5q-4 -18 -6 -37t-2 -38q0 -74 27.5 -141.5t80.5 -119.5
q53 -53 121.5 -81t144.5 -28q29 0 60.5 6.5t41.5 9.5q20 6 36 11.5t18 6.5q2 0 3.5 0.5t3.5 0.5t4 -0.5t4 -0.5l1 -1l113 -40q4 -2 8 -3t8 -1h2h2q19 0 33.5 14t14.5 34v2q-1 3 -1.5 6t-0.5 6v0zM847 368q-2 -2 -3 -4t-3 -4v-1q-8 -13 -10.5 -25.5t0.5 -23.5l25 -88l-86 31
q-8 3 -15.5 4.5t-16.5 1.5q-7 0 -14.5 -1.5t-15.5 -3.5q0 -1 -15 -6t-33 -10t-42.5 -9.5t-43.5 -4.5q-64 0 -120 24q-57 24 -99 65.5t-66 97.5q-25 56 -25 119q0 15 2 30.5t5 31.5q11 52 40 96t70.5 76t92.5 50t107 18q65 0 124 -24t104 -70q42 -42 64.5 -95.5t22.5 -112.5
q0 -43 -12.5 -84.5t-36.5 -77.5v0zM552 123q-33 -19 -69.5 -28.5t-74.5 -9.5v0v0q-27 0 -54.5 5.5t-55.5 15.5q-11 5 -23.5 5t-24.5 -4l-85 -33q6 32 12 61.5t6 32.5q3 12 -1 22t-10 18v1q-41 61 -44 134t33 138q6 11 2.5 24t-15.5 19q-11 7 -24 3t-19 -15
q-22 -39 -32.5 -83t-8.5 -89q2 -44 16 -87t39 -80v0v0q-4 -17 -11 -55t-11 -61q-3 -13 1.5 -25t14.5 -21v0q7 -5 14.5 -8t16.5 -3v0v0q4 0 8.5 1t9.5 3l111 44l1 -1q33 -13 67 -19.5t66 -6.5q47 0 92 12t85 35q11 7 14.5 20t-3.5 24q-6 11 -19 14.5t-24 -3.5z" />
    <glyph glyph-name="uniE963" unicode="&#xe963;" horiz-adv-x="1638" 
d="M1464 929l-624 -624l-635 624l-144 -143l779 -778l768 778z" />
    <glyph glyph-name="uniE964" unicode="&#xe964;" horiz-adv-x="717" 
d="M358 960q-74 0 -139 -28q-65 -29 -114 -77.5t-77 -114.5t-28 -140q0 -50 13.5 -98.5t40.5 -90.5l280 -461q4 -6 9 -9.5t11 -4.5q9 -1 17.5 2.5t13.5 12.5l281 465q25 41 38 88t13 96q0 74 -28 140q-29 66 -77.5 114.5t-113.5 77.5q-65 28 -140 28v0zM358 440
q-75 0 -117 43t-42 117t42.5 117t116.5 43t117 -43t43 -117q0 -73 -41.5 -116.5t-118.5 -43.5z" />
  </font>
</defs>
</svg>
